<?xml version="1.0" encoding="UTF-8" standalone="no"?>
<!-- Created with Inkscape (http://www.inkscape.org/) -->

<svg
   width="23mm"
   height="23mm"
   viewBox="0 0 23 23"
   version="1.1"
   id="svg1"
   xml:space="preserve"
   xmlns:xlink="http://www.w3.org/1999/xlink"
   xmlns="http://www.w3.org/2000/svg"
   xmlns:svg="http://www.w3.org/2000/svg"><defs
     id="defs1"><linearGradient
       id="linearGradient35"><stop
         style="stop-color:#e9b720;stop-opacity:1;"
         offset="0"
         id="stop35" /><stop
         style="stop-color:#e93363;stop-opacity:1;"
         offset="1"
         id="stop36" /></linearGradient><linearGradient
       id="linearGradient45"><stop
         style="stop-color:#3e94cb;stop-opacity:1;"
         offset="0"
         id="stop44" /><stop
         style="stop-color:#348bc0;stop-opacity:0;"
         offset="1"
         id="stop45" /></linearGradient><linearGradient
       id="linearGradient48"><stop
         style="stop-color:#00a746;stop-opacity:1;"
         offset="0"
         id="stop47" /><stop
         style="stop-color:#269f4c;stop-opacity:0;"
         offset="1"
         id="stop48" /></linearGradient><radialGradient
       xlink:href="#linearGradient35"
       id="radialGradient43-7-5-1-3-6-7"
       cx="1247.2418"
       cy="51.762833"
       fx="1247.2418"
       fy="51.762833"
       r="14.4836"
       gradientTransform="matrix(0.99993051,0.01178901,-0.00755472,0.6407831,32.293896,10.351735)"
       gradientUnits="userSpaceOnUse" /><radialGradient
       xlink:href="#linearGradient45"
       id="radialGradient44-3-6-1-0-6-5"
       cx="1262.7365"
       cy="44.664909"
       fx="1262.7365"
       fy="44.664909"
       r="14.4836"
       gradientTransform="matrix(1.1850298,0.03144999,-0.01029826,0.38803652,-201.3081,-2.0164344)"
       gradientUnits="userSpaceOnUse" /><radialGradient
       xlink:href="#linearGradient48"
       id="radialGradient47-3-9-8-0-7-9"
       cx="1255.6011"
       cy="56.670609"
       fx="1255.6011"
       fy="56.670609"
       r="14.4836"
       gradientTransform="matrix(0.99998384,0.00568475,-0.00315284,0.55460557,32.010546,22.270044)"
       gradientUnits="userSpaceOnUse" /></defs><g
     id="layer1"
     transform="translate(-1190.8783,114.68911)"><g
       id="g50-4-5-8-9-9-0"
       transform="matrix(1.7384285,0,0,1.7384285,-1025.361,-196.60673)"
       style="stroke-width:0.575231"><path
         id="path96-5-1-8-2-0-9-8-5-7-3-0-59-4-1-5-6-1-9-6-4-4-1-0-2-6-6-9-9"
         style="fill:url(#radialGradient43-7-5-1-3-6-7);fill-opacity:1;stroke:none;stroke-width:0.497575;stroke-linejoin:round;stroke-dasharray:none"
         d="m 1278.6353,53.2671 c -1.2748,0 -2.156,0.541569 -2.156,0.541569 -0.039,0.0011 -0.045,0.0031 -0.045,0.03876 l -0.01,3.672644 v 0.0067 0.348816 0.0124 0.601514 l 0.01,-0.0031 c 0,0 0.5149,0.06114 0.7033,0.218591 0.5018,0.419418 0.59,1.113017 0.6051,1.306897 v 0.05529 h 0.8568 c 0,-0.24835 0.2017,-0.449565 0.4501,-0.449585 0.2484,0 0.4496,0.201225 0.4496,0.449585 h 0.8573 c 0,-0.24836 0.2012,-0.449585 0.4496,-0.449585 0.2484,0 0.4496,0.201225 0.4496,0.449585 h 0.8573 c 0,-0.24836 0.2012,-0.449585 0.4496,-0.449585 0.01,0 0.014,10e-4 0.021,10e-4 0,-3.1e-4 0.01,-8.63e-4 0.012,-10e-4 0.1828,2.8e-5 0.3476,0.110796 0.4166,0.280086 v -0.01292 c 0.026,0.05717 0.041,0.118824 0.041,0.182418 h 0.7881 c 0,-0.251101 0.2026,-0.453603 0.4495,-0.453719 0.2432,7e-5 0.4425,0.196652 0.4496,0.4439 0.2843,-0.0219 0.5467,-0.09993 0.784,-0.241329 0.2868,-0.173283 0.5138,-0.403091 0.6811,-0.68988 0.1673,-0.2868 0.2506,-0.60379 0.2506,-0.95033 0,-0.250947 -0.048,-0.489715 -0.1432,-0.716752 -0.096,-0.22706 -0.2302,-0.427203 -0.4035,-0.60048 0.1613,-0.13742 0.2988,-0.316879 0.4123,-0.537952 0.1195,-0.221069 0.1793,-0.459822 0.1793,-0.716752 0,-0.31667 -0.078,-0.60963 -0.233,-0.878499 -0.1553,-0.26887 -0.3672,-0.483592 -0.6361,-0.644922 -0.2689,-0.1673 -0.5736,-0.251148 -0.9142,-0.251148 h -1.7208 c -5e-4,0 -6e-4,5.08e-4 0,5.17e-4 -0.029,-9.92e-4 -1.024,-0.03595 -1.5296,-0.09302 -0.9506,-0.107267 -0.9977,-0.469739 -2.8308,-0.469739 z m 3.282,1.219564 h 5e-4 c 0.033,0.01007 0.1608,0.02795 0.1958,0.06305 0.047,0.0441 0.071,0.111598 0.071,0.203088 0,0.0949 -0.029,0.179688 -0.086,0.254248 -0.054,0.0746 -0.142,0.111621 -0.264,0.111621 -0.075,0 -0.1361,-0.02153 -0.1835,-0.06563 -0.047,-0.0474 -0.071,-0.115505 -0.071,-0.203605 0,-0.0983 0.027,-0.184865 0.081,-0.259415 0.039,-0.05041 0.1929,-0.08719 0.2564,-0.103353 z m -2.0459,0.321944 v 0 c 0,0 0.1628,0.01559 0.1933,0.04599 0.03,0.0305 0.036,0.07593 0.015,0.136942 l -0.2491,0.986504 h 0.6408 c 0.041,0 0.069,0.01674 0.086,0.05064 0.017,0.0305 0.017,0.08128 0,0.152446 -0.014,0.0678 -0.035,0.118555 -0.066,0.152445 -0.031,0.0339 -0.066,0.05064 -0.1064,0.05064 h -0.6609 l -0.2589,0.986503 c -0.037,0.139452 -0.056,0.262607 -0.056,0.371037 0,0.108427 0.019,0.198084 0.046,0.269234 0.031,0.0712 0.071,0.125501 0.122,0.162781 0.054,0.0339 0.1152,0.05064 0.1829,0.05064 v 5.17e-4 c 0,5e-5 10e-5,-5.17e-4 0.01,-5.17e-4 0.078,0 0.1659,-0.03887 0.2641,-0.116789 0.098,-0.0779 0.2118,-0.20162 0.3406,-0.371036 0.1253,-0.172819 0.2747,-0.401637 0.4475,-0.686263 0.1527,-0.251559 0.3278,-0.554846 0.5229,-0.904338 l 0.021,-0.08682 c 0.02,-0.0644 0.046,-0.106784 0.076,-0.127124 0.034,-0.0203 0.085,-0.03049 0.153,-0.03049 0.098,0 0.1622,0.01508 0.1927,0.04548 0.03,0.0305 0.036,0.07651 0.015,0.137459 l -0.4827,1.905827 c -0.017,0.0745 -0.022,0.130668 -0.015,0.167948 0.01,0.0339 0.037,0.05064 0.081,0.05064 0.031,0 0.059,-0.01009 0.086,-0.03049 0.027,-0.0203 0.058,-0.049 0.091,-0.0863 0.037,-0.0407 0.08,-0.09327 0.1271,-0.157613 0.024,-0.0339 0.049,-0.05251 0.076,-0.05581 0.031,-0.007 0.064,0.0019 0.1018,0.02532 0.054,0.0305 0.088,0.06274 0.1013,0.09663 0.014,0.0305 0.01,0.06273 -0.01,0.09663 -0.064,0.11182 -0.1319,0.205023 -0.2031,0.27957 -0.071,0.0745 -0.1482,0.1289 -0.2295,0.16278 -0.078,0.0373 -0.1622,0.05581 -0.2537,0.05581 -0.1796,0 -0.2979,-0.06751 -0.3555,-0.203089 -0.054,-0.138936 -0.044,-0.340824 0.031,-0.605131 l 0.1431,-0.593245 c -0.026,0.0455 -0.052,0.09331 -0.077,0.135909 -0.1864,0.31852 -0.3523,0.5707 -0.4981,0.75706 -0.1457,0.186369 -0.2849,0.320206 -0.4171,0.401526 -0.1355,0.0779 -0.2765,0.117305 -0.4222,0.117305 0,0 4e-4,-0.001 -0.01,-0.001 l -0.01,0.001 c -0.1525,0 -0.2792,-0.03407 -0.3808,-0.101802 -0.098,-0.0712 -0.1729,-0.164363 -0.2238,-0.27957 -0.051,-0.11859 -0.078,-0.254214 -0.081,-0.406693 0,-0.152476 0.015,-0.31019 0.056,-0.47284 l 0.2491,-0.960665 h -0.3861 c -0.041,0 -0.069,-0.01674 -0.086,-0.05064 -0.014,-0.0339 -0.014,-0.08464 0,-0.152445 0.014,-0.0711 0.036,-0.121956 0.066,-0.152446 0.034,-0.0339 0.07,-0.05064 0.1064,-0.05064 h 0.4067 l 0.2595,-1.011825 c 0.016,-0.06352 0.037,-0.106794 0.071,-0.127124 0.034,-0.0203 0.085,-0.03097 0.1519,-0.03049 z m 4.1651,0.08733 h 0.6811 c 0.1912,0 0.3556,0.07155 0.493,0.214974 0.1374,0.13743 0.2057,0.301803 0.2057,0.492993 0,0.17328 -0.066,0.334313 -0.1969,0.483692 -0.1255,0.143399 -0.2926,0.21549 -0.5018,0.21549 h -0.6811 z m 0,2.491321 h 0.5462 c 0.2151,0 0.4007,0.07774 0.5561,0.233061 0.1553,0.155339 0.2512,0.273094 0.2589,0.444417 0.01,0.144019 -0.071,0.301659 -0.1835,0.391707 -0.1683,0.134624 -0.4164,0.13901 -0.6315,0.13901 h -0.5555 z" /><path
         id="path96-5-1-8-2-0-9-8-5-7-3-0-59-4-1-5-6-1-9-6-4-4-1-7-8-5-2-9-6-3"
         style="fill:url(#radialGradient44-3-6-1-0-6-5);fill-opacity:1;stroke:none;stroke-width:0.497575;stroke-linejoin:round;stroke-dasharray:none"
         d="m 1278.6353,53.2671 c -1.2748,0 -2.156,0.541569 -2.156,0.541569 -0.039,0.0011 -0.045,0.0031 -0.045,0.03876 l -0.01,3.672644 v 0.0067 0.348816 0.0124 0.601514 l 0.01,-0.0031 c 0,0 0.5149,0.06114 0.7033,0.218591 0.5018,0.419418 0.59,1.113017 0.6051,1.306897 v 0.05529 h 0.8568 c 0,-0.24835 0.2017,-0.449565 0.4501,-0.449585 0.2484,0 0.4496,0.201225 0.4496,0.449585 h 0.8573 c 0,-0.24836 0.2012,-0.449585 0.4496,-0.449585 0.2484,0 0.4496,0.201225 0.4496,0.449585 h 0.8573 c 0,-0.24836 0.2012,-0.449585 0.4496,-0.449585 0.01,0 0.014,10e-4 0.021,10e-4 0,-3.1e-4 0.01,-8.63e-4 0.012,-10e-4 0.1828,2.8e-5 0.3476,0.110796 0.4166,0.280086 v -0.01292 c 0.026,0.05717 0.041,0.118824 0.041,0.182418 h 0.7881 c 0,-0.251101 0.2026,-0.453603 0.4495,-0.453719 0.2432,7e-5 0.4425,0.196652 0.4496,0.4439 0.2843,-0.0219 0.5467,-0.09993 0.784,-0.241329 0.2868,-0.173283 0.5138,-0.403091 0.6811,-0.68988 0.1673,-0.2868 0.2506,-0.60379 0.2506,-0.95033 0,-0.250947 -0.048,-0.489715 -0.1432,-0.716752 -0.096,-0.22706 -0.2302,-0.427203 -0.4035,-0.60048 0.1613,-0.13742 0.2988,-0.316879 0.4123,-0.537952 0.1195,-0.221069 0.1793,-0.459822 0.1793,-0.716752 0,-0.31667 -0.078,-0.60963 -0.233,-0.878499 -0.1553,-0.26887 -0.3672,-0.483592 -0.6361,-0.644922 -0.2689,-0.1673 -0.5736,-0.251148 -0.9142,-0.251148 h -1.7208 c -5e-4,0 -6e-4,5.08e-4 0,5.17e-4 -0.029,-9.92e-4 -1.024,-0.03595 -1.5296,-0.09302 -0.9506,-0.107267 -0.9977,-0.469739 -2.8308,-0.469739 z m 3.282,1.219564 h 5e-4 c 0.033,0.01007 0.1608,0.02795 0.1958,0.06305 0.047,0.0441 0.071,0.111598 0.071,0.203088 0,0.0949 -0.029,0.179688 -0.086,0.254248 -0.054,0.0746 -0.142,0.111621 -0.264,0.111621 -0.075,0 -0.1361,-0.02153 -0.1835,-0.06563 -0.047,-0.0474 -0.071,-0.115505 -0.071,-0.203605 0,-0.0983 0.027,-0.184865 0.081,-0.259415 0.039,-0.05041 0.1929,-0.08719 0.2564,-0.103353 z m -2.0459,0.321944 v 0 c 0,0 0.1628,0.01559 0.1933,0.04599 0.03,0.0305 0.036,0.07593 0.015,0.136942 l -0.2491,0.986504 h 0.6408 c 0.041,0 0.069,0.01674 0.086,0.05064 0.017,0.0305 0.017,0.08128 0,0.152446 -0.014,0.0678 -0.035,0.118555 -0.066,0.152445 -0.031,0.0339 -0.066,0.05064 -0.1064,0.05064 h -0.6609 l -0.2589,0.986503 c -0.037,0.139452 -0.056,0.262607 -0.056,0.371037 0,0.108427 0.019,0.198084 0.046,0.269234 0.031,0.0712 0.071,0.125501 0.122,0.162781 0.054,0.0339 0.1152,0.05064 0.1829,0.05064 v 5.17e-4 c 0,5e-5 10e-5,-5.17e-4 0.01,-5.17e-4 0.078,0 0.1659,-0.03887 0.2641,-0.116789 0.098,-0.0779 0.2118,-0.20162 0.3406,-0.371036 0.1253,-0.172819 0.2747,-0.401637 0.4475,-0.686263 0.1527,-0.251559 0.3278,-0.554846 0.5229,-0.904338 l 0.021,-0.08682 c 0.02,-0.0644 0.046,-0.106784 0.076,-0.127124 0.034,-0.0203 0.085,-0.03049 0.153,-0.03049 0.098,0 0.1622,0.01508 0.1927,0.04548 0.03,0.0305 0.036,0.07651 0.015,0.137459 l -0.4827,1.905827 c -0.017,0.0745 -0.022,0.130668 -0.015,0.167948 0.01,0.0339 0.037,0.05064 0.081,0.05064 0.031,0 0.059,-0.01009 0.086,-0.03049 0.027,-0.0203 0.058,-0.049 0.091,-0.0863 0.037,-0.0407 0.08,-0.09327 0.1271,-0.157613 0.024,-0.0339 0.049,-0.05251 0.076,-0.05581 0.031,-0.007 0.064,0.0019 0.1018,0.02532 0.054,0.0305 0.088,0.06274 0.1013,0.09663 0.014,0.0305 0.01,0.06273 -0.01,0.09663 -0.064,0.11182 -0.1319,0.205023 -0.2031,0.27957 -0.071,0.0745 -0.1482,0.1289 -0.2295,0.16278 -0.078,0.0373 -0.1622,0.05581 -0.2537,0.05581 -0.1796,0 -0.2979,-0.06751 -0.3555,-0.203089 -0.054,-0.138936 -0.044,-0.340824 0.031,-0.605131 l 0.1431,-0.593245 c -0.026,0.0455 -0.052,0.09331 -0.077,0.135909 -0.1864,0.31852 -0.3523,0.5707 -0.4981,0.75706 -0.1457,0.186369 -0.2849,0.320206 -0.4171,0.401526 -0.1355,0.0779 -0.2765,0.117305 -0.4222,0.117305 0,0 4e-4,-0.001 -0.01,-0.001 l -0.01,0.001 c -0.1525,0 -0.2792,-0.03407 -0.3808,-0.101802 -0.098,-0.0712 -0.1729,-0.164363 -0.2238,-0.27957 -0.051,-0.11859 -0.078,-0.254214 -0.081,-0.406693 0,-0.152476 0.015,-0.31019 0.056,-0.47284 l 0.2491,-0.960665 h -0.3861 c -0.041,0 -0.069,-0.01674 -0.086,-0.05064 -0.014,-0.0339 -0.014,-0.08464 0,-0.152445 0.014,-0.0711 0.036,-0.121956 0.066,-0.152446 0.034,-0.0339 0.07,-0.05064 0.1064,-0.05064 h 0.4067 l 0.2595,-1.011825 c 0.016,-0.06352 0.037,-0.106794 0.071,-0.127124 0.034,-0.0203 0.085,-0.03097 0.1519,-0.03049 z m 4.1651,0.08733 h 0.6811 c 0.1912,0 0.3556,0.07155 0.493,0.214974 0.1374,0.13743 0.2057,0.301803 0.2057,0.492993 0,0.17328 -0.066,0.334313 -0.1969,0.483692 -0.1255,0.143399 -0.2926,0.21549 -0.5018,0.21549 h -0.6811 z m 0,2.491321 h 0.5462 c 0.2151,0 0.4007,0.07774 0.5561,0.233061 0.1553,0.155339 0.2512,0.273094 0.2589,0.444417 0.01,0.144019 -0.071,0.301659 -0.1835,0.391707 -0.1683,0.134624 -0.4164,0.13901 -0.6315,0.13901 h -0.5555 z" /><path
         id="path96-5-1-8-2-0-9-8-5-7-3-0-59-4-1-5-6-1-9-6-4-4-1-8-5-4-8-3-0-6"
         style="fill:url(#radialGradient47-3-9-8-0-7-9);fill-opacity:1;stroke:none;stroke-width:0.497575;stroke-linejoin:round;stroke-dasharray:none"
         d="m 1278.6353,53.2671 c -1.2748,0 -2.156,0.541569 -2.156,0.541569 -0.039,0.0011 -0.045,0.0031 -0.045,0.03876 l -0.01,3.672644 v 0.0067 0.348816 0.0124 0.601514 l 0.01,-0.0031 c 0,0 0.5149,0.06114 0.7033,0.218591 0.5018,0.419418 0.59,1.113017 0.6051,1.306897 v 0.05529 h 0.8568 c 0,-0.24835 0.2017,-0.449565 0.4501,-0.449585 0.2484,0 0.4496,0.201225 0.4496,0.449585 h 0.8573 c 0,-0.24836 0.2012,-0.449585 0.4496,-0.449585 0.2484,0 0.4496,0.201225 0.4496,0.449585 h 0.8573 c 0,-0.24836 0.2012,-0.449585 0.4496,-0.449585 0.01,0 0.014,10e-4 0.021,10e-4 0,-3.1e-4 0.01,-8.63e-4 0.012,-10e-4 0.1828,2.8e-5 0.3476,0.110796 0.4166,0.280086 v -0.01292 c 0.026,0.05717 0.041,0.118824 0.041,0.182418 h 0.7881 c 0,-0.251101 0.2026,-0.453603 0.4495,-0.453719 0.2432,7e-5 0.4425,0.196652 0.4496,0.4439 0.2843,-0.0219 0.5467,-0.09993 0.784,-0.241329 0.2868,-0.173283 0.5138,-0.403091 0.6811,-0.68988 0.1673,-0.2868 0.2506,-0.60379 0.2506,-0.95033 0,-0.250947 -0.048,-0.489715 -0.1432,-0.716752 -0.096,-0.22706 -0.2302,-0.427203 -0.4035,-0.60048 0.1613,-0.13742 0.2988,-0.316879 0.4123,-0.537952 0.1195,-0.221069 0.1793,-0.459822 0.1793,-0.716752 0,-0.31667 -0.078,-0.60963 -0.233,-0.878499 -0.1553,-0.26887 -0.3672,-0.483592 -0.6361,-0.644922 -0.2689,-0.1673 -0.5736,-0.251148 -0.9142,-0.251148 h -1.7208 c -5e-4,0 -6e-4,5.08e-4 0,5.17e-4 -0.029,-9.92e-4 -1.024,-0.03595 -1.5296,-0.09302 -0.9506,-0.107267 -0.9977,-0.469739 -2.8308,-0.469739 z m 3.282,1.219564 h 5e-4 c 0.033,0.01007 0.1608,0.02795 0.1958,0.06305 0.047,0.0441 0.071,0.111598 0.071,0.203088 0,0.0949 -0.029,0.179688 -0.086,0.254248 -0.054,0.0746 -0.142,0.111621 -0.264,0.111621 -0.075,0 -0.1361,-0.02153 -0.1835,-0.06563 -0.047,-0.0474 -0.071,-0.115505 -0.071,-0.203605 0,-0.0983 0.027,-0.184865 0.081,-0.259415 0.039,-0.05041 0.1929,-0.08719 0.2564,-0.103353 z m -2.0459,0.321944 v 0 c 0,0 0.1628,0.01559 0.1933,0.04599 0.03,0.0305 0.036,0.07593 0.015,0.136942 l -0.2491,0.986504 h 0.6408 c 0.041,0 0.069,0.01674 0.086,0.05064 0.017,0.0305 0.017,0.08128 0,0.152446 -0.014,0.0678 -0.035,0.118555 -0.066,0.152445 -0.031,0.0339 -0.066,0.05064 -0.1064,0.05064 h -0.6609 l -0.2589,0.986503 c -0.037,0.139452 -0.056,0.262607 -0.056,0.371037 0,0.108427 0.019,0.198084 0.046,0.269234 0.031,0.0712 0.071,0.125501 0.122,0.162781 0.054,0.0339 0.1152,0.05064 0.1829,0.05064 v 5.17e-4 c 0,5e-5 10e-5,-5.17e-4 0.01,-5.17e-4 0.078,0 0.1659,-0.03887 0.2641,-0.116789 0.098,-0.0779 0.2118,-0.20162 0.3406,-0.371036 0.1253,-0.172819 0.2747,-0.401637 0.4475,-0.686263 0.1527,-0.251559 0.3278,-0.554846 0.5229,-0.904338 l 0.021,-0.08682 c 0.02,-0.0644 0.046,-0.106784 0.076,-0.127124 0.034,-0.0203 0.085,-0.03049 0.153,-0.03049 0.098,0 0.1622,0.01508 0.1927,0.04548 0.03,0.0305 0.036,0.07651 0.015,0.137459 l -0.4827,1.905827 c -0.017,0.0745 -0.022,0.130668 -0.015,0.167948 0.01,0.0339 0.037,0.05064 0.081,0.05064 0.031,0 0.059,-0.01009 0.086,-0.03049 0.027,-0.0203 0.058,-0.049 0.091,-0.0863 0.037,-0.0407 0.08,-0.09327 0.1271,-0.157613 0.024,-0.0339 0.049,-0.05251 0.076,-0.05581 0.031,-0.007 0.064,0.0019 0.1018,0.02532 0.054,0.0305 0.088,0.06274 0.1013,0.09663 0.014,0.0305 0.01,0.06273 -0.01,0.09663 -0.064,0.11182 -0.1319,0.205023 -0.2031,0.27957 -0.071,0.0745 -0.1482,0.1289 -0.2295,0.16278 -0.078,0.0373 -0.1622,0.05581 -0.2537,0.05581 -0.1796,0 -0.2979,-0.06751 -0.3555,-0.203089 -0.054,-0.138936 -0.044,-0.340824 0.031,-0.605131 l 0.1431,-0.593245 c -0.026,0.0455 -0.052,0.09331 -0.077,0.135909 -0.1864,0.31852 -0.3523,0.5707 -0.4981,0.75706 -0.1457,0.186369 -0.2849,0.320206 -0.4171,0.401526 -0.1355,0.0779 -0.2765,0.117305 -0.4222,0.117305 0,0 4e-4,-0.001 -0.01,-0.001 l -0.01,0.001 c -0.1525,0 -0.2792,-0.03407 -0.3808,-0.101802 -0.098,-0.0712 -0.1729,-0.164363 -0.2238,-0.27957 -0.051,-0.11859 -0.078,-0.254214 -0.081,-0.406693 0,-0.152476 0.015,-0.31019 0.056,-0.47284 l 0.2491,-0.960665 h -0.3861 c -0.041,0 -0.069,-0.01674 -0.086,-0.05064 -0.014,-0.0339 -0.014,-0.08464 0,-0.152445 0.014,-0.0711 0.036,-0.121956 0.066,-0.152446 0.034,-0.0339 0.07,-0.05064 0.1064,-0.05064 h 0.4067 l 0.2595,-1.011825 c 0.016,-0.06352 0.037,-0.106794 0.071,-0.127124 0.034,-0.0203 0.085,-0.03097 0.1519,-0.03049 z m 4.1651,0.08733 h 0.6811 c 0.1912,0 0.3556,0.07155 0.493,0.214974 0.1374,0.13743 0.2057,0.301803 0.2057,0.492993 0,0.17328 -0.066,0.334313 -0.1969,0.483692 -0.1255,0.143399 -0.2926,0.21549 -0.5018,0.21549 h -0.6811 z m 0,2.491321 h 0.5462 c 0.2151,0 0.4007,0.07774 0.5561,0.233061 0.1553,0.155339 0.2512,0.273094 0.2589,0.444417 0.01,0.144019 -0.071,0.301659 -0.1835,0.391707 -0.1683,0.134624 -0.4164,0.13901 -0.6315,0.13901 h -0.5555 z" /><g
         id="g39-5-1-7-4-3-2-0"
         transform="translate(1.14e-4,18.069591)"
         style="fill:#63515e;fill-opacity:1;stroke-width:0.575231"><path
           id="path47-4-1-9-5-4-4-9-6-6-8-8-7-0-6-9-1-2-4-1-7-5-6-9-6-4-7-8-7-6"
           style="color:#000000;fill:#63515e;fill-opacity:1;stroke-width:0.575231;stroke-linejoin:round;-inkscape-stroke:none"
           d="m 1280.1688,29.226771 c -0.492,0.0145 -0.9842,0.18447 -1.3334,0.54259 -0.1821,0.24923 -0.323,0.25842 -0.5756,0.10051 -0.4461,-0.0736 -0.9568,0.0325 -1.2847,0.35558 0.072,0.091 0.2566,0.0273 0.3732,0.055 0.1767,0.0153 0.629,-0.013 0.2223,0.0838 -0.3891,0.15181 -0.7145,0.46172 -0.9003,0.83235 0.1875,0.072 0.4547,-0.2018 0.663,-0.24227 0.1991,-0.0719 0.7365,-0.37433 0.7266,-0.31021 -0.338,0.38508 -0.4626,0.9522 -0.3599,1.44983 0.1458,0.22376 0.3701,-0.3142 0.5145,-0.39702 0.2873,-0.3182 0.4647,-0.72689 0.4838,-1.15658 0.4481,0.53388 0.6575,1.23798 0.6088,1.93006 -0.012,0.51738 -0.092,1.0305 -0.1845,1.53877 -0.9558,-0.0414 -1.9286,0.25065 -2.693,0.827 0.1767,0.1375 0.6644,-0.14721 0.9446,-0.11732 0.8968,-0.13136 1.8276,-0.20461 2.7098,0.0544 1.2809,0.33846 2.4564,0.47831 3.7842,0.25735 0.4123,-0.074 0.8408,-0.16128 1.1941,-0.39831 0.042,-0.16801 -0.1165,-0.3125 -0.1994,-0.44677 -0.6529,-0.91921 -1.1514,-1.66889 -1.8287,-2.5694 -0.198,0.0979 -0.3145,0.37502 -0.4835,0.53192 -0.1214,0.16322 -0.2339,0.38061 -0.3235,0.0568 -0.2574,-0.3887 -0.5091,-0.78295 -0.7772,-1.16341 -0.1962,0.10699 -0.2828,0.42538 -0.4466,0.59117 -0.17,0.23517 -0.3196,0.4942 -0.5017,0.71513 -0.1426,0.0794 -0.3326,0.10715 -0.3929,0.28026 -0.053,0.0529 -0.1733,0.34795 -0.1731,0.21076 -0.01,-0.59562 0.01,-1.22211 -0.3071,-1.75345 -0.066,-0.22091 -0.4158,-0.57483 -0.3894,-0.68952 0.5342,0.0625 1.0679,0.13202 1.6028,0.18691 0,-0.27986 -0.454,-0.52889 -0.7325,-0.61405 -0.1967,-0.10769 -0.6992,-0.003 -0.7415,-0.04 0.2916,-0.20012 0.5763,-0.41947 0.8335,-0.66056 0.01,-0.02 -0.012,-0.0424 -0.033,-0.0412 z" /></g></g></g></svg>
