<svg xmlns="http://www.w3.org/2000/svg" width="1024" height="1024"><path fill="#2F2F41" d="M316.555 752.337a11349 11349 0 0 1-87.807-106.41l-34.517-41.996c-9.314-11.216-37.399-42.267-41.616-54.02-4.793-13.361-3.255-28.08-3.257-41.988l-.171-32.246c-.033-5.973-.013-12.815 4.627-17.262 2.874-2.753 7.343-3.562 11.174-4.029 6.546-.797 13.608-.256 20.194-.176l33.387.318c1.965 6.558 2.985 14.857 6.868 20.563 15.94-.632 31.754-.191 47.689-.165l78.057.032c10.654.015 21.405.413 32.044.074-.566-7.127-2.995-13.477-5.256-20.208 11.425-.526 32.632-2.518 42.849 1.255 2.116.782 3.868 2.292 5.522 3.784 8.308 7.496 15.389 16.888 22.666 25.37l37.625 43.612c6.532 7.587 12.741 15.637 19.724 22.805a1448 1448 0 0 0 30.949 36.844c6.096 7.012 12.765 13.909 18.445 21.24 9.046 11.306 27.525 25.172 29.139 39.981 4.973.807 10.768.321 15.817.321l31.101-.019 105.071-.124c-.556-28.992.099-58.117-.013-87.128l-.167-41.544c-.035-8.761-.293-17.604.19-26.354l78.219-.17c7.661-.033 24.489-1.198 31.201.058 3.539 8.92 6.786 17.793 8.782 27.213 8.633 40.741 1.662 87.309-14.71 125.238-13.917 32.244-33.021 57.27-57.304 82.341-8.253 8.522-17.03 17.466-26.642 24.458l109.285-.492c7.965-.025 16.062.251 24.01-.051 6.809-.259 13.823-.862 20.637-.389 1.765.123 3.983.287 5.322 1.579.613.592.372.939.334 1.715-.944 1.232-1.296 1.815-2.877 2.079-3.675.613-8.107-.014-11.867-.018l-32.138.058-113.641.609q-76.64.832-153.281.23c-29.169-.326-58.306-1.276-87.484-1.47l-230.3.038-111.568-.046c-18.568.028-37.21-.307-55.769.144-3.344.081-8.008.811-10.873-1.143-.455-1.092-.541-1.471.048-2.627.514-1.008 1.419-1.448 2.48-1.627 4.968-.836 11.112-.109 16.218-.075l36.988.191 99.526-.275c18.309-.031 36.78.472 55.07-.098"/><path fill="#E7E6E6" d="m736.889 494.867 78.219-.17c7.661-.033 24.489-1.198 31.201.058 3.539 8.92 6.786 17.793 8.782 27.213 8.633 40.741 1.662 87.309-14.71 125.238-13.917 32.244-33.021 57.27-57.304 82.341-8.253 8.522-17.03 17.466-26.642 24.458l109.285-.492c7.965-.025 16.062.251 24.01-.051 6.809-.259 13.823-.862 20.637-.389 1.765.123 3.983.287 5.322 1.579.613.592.372.939.334 1.715-.944 1.232-1.296 1.815-2.877 2.079-3.675.613-8.107-.014-11.867-.018l-32.138.058-113.641.609q-76.64.832-153.281.23c-29.169-.326-58.306-1.276-87.484-1.47l-230.3.038-111.568-.046c-18.568.028-37.21-.307-55.769.144-3.344.081-8.008.811-10.873-1.143-.455-1.092-.541-1.471.048-2.627.514-1.008 1.419-1.448 2.48-1.627 4.968-.836 11.112-.109 16.218-.075l36.988.191 99.526-.275c18.309-.031 36.78.472 55.07-.098 1.172.543 2.436 1.885 3.443 2.737l170.569-.073 47.433.097c9.582.095 19.315.94 28.866-.051 4.469-.464 8.241-2.011 11.53-5.117 3.324-3.141 5.027-6.565 5.937-11.006 1.94-9.472.694-20.483.658-30.166-.073-19.676-.3-39.368-.101-59.043 4.973.807 10.768.321 15.817.321l31.101-.019 105.071-.124c-.556-28.992.099-58.117-.013-87.128l-.167-41.544c-.035-8.761-.293-17.604.19-26.354"/><path fill="#2F2F41" d="M609.698 695.229c9.217-.295 42.315-1.89 48.737 2.162 3.581 2.259 4.83 6.221 5.716 10.114-.829 2.88-1.982 5.494-4.137 7.642-4.162 4.147-10.548 3.52-15.94 3.513-11.21.355-35.142 1.587-45.254-.644-2.461-.543-4.917-1.625-6.79-3.339-2.289-2.093-3.143-4.554-3.285-7.606-.127-2.721.511-5.245 2.403-7.27 4.873-5.218 12.035-4.475 18.55-4.572"/><path fill="#F1AB54" d="M308.775 572.724c11.226-.377 27.198-1.547 36.163 6.401 1.907 1.69 3.815 4.154 3.893 6.816.041 1.395-.451 2.695-1.48 3.649-2.822 2.615-6.665 1.966-10.203 1.875-11.263-.171-23.629 1.971-33.482-4.733-2.643-1.799-7.566-5.699-7.834-9.002-.104-1.273.335-2.251 1.245-3.121 2.483-2.374 8.537-1.813 11.698-1.885"/><path fill="#24C19E" d="M480.363 606.72c12.472-.491 28.375-2.499 38.306 6.568 1.924 1.756 4.703 4.475 4.485 7.343-.09 1.185-.791 2.554-1.722 3.297-2.094 1.673-5.846 1.153-8.373 1.109-13.415.437-27.247 1.991-38.172-7.288-2.361-2.005-4.31-4.068-4.543-7.256.293-.958.503-1.461 1.239-2.184 2.052-2.013 6.118-1.545 8.78-1.589"/><path fill="#F55972" d="M251.855 502.736c9.191-.226 22.378-1.236 30.416 3.591 2.81 1.688 6.851 4.801 7.316 8.331.176 1.334-.283 2.374-1.13 3.37-2.771 3.259-8.816 2.674-12.581 2.697-9.987.437-20.98 1.173-29.997-3.813-3.077-1.701-8.026-4.748-8.705-8.426-.238-1.294.143-2.191.988-3.147 2.813-3.182 9.785-2.552 13.693-2.603"/><path fill="#F55972" d="M335.056 608.131c12.667-.726 29.481-2.169 40.198 5.994 2.207 1.68 4.732 4.666 4.732 7.627-.001 1.341-.341 2.053-1.286 2.999-1.185 1.187-3.02 1.237-4.575 1.262-9.601.101-20.478 1.786-29.876-.447-5.706-1.356-12.321-5.287-15.307-10.557-.831-1.468-.855-2.414-.469-4.02 1.763-2.271 3.911-2.427 6.583-2.858"/><path fill="#F55972" d="M272.566 537.711c9.807-.166 26.98-2.003 35.523 2.084 3.367 1.61 8.467 5.439 9.393 9.297.305 1.271.233 2.307-.59 3.374-1.314 1.704-3.266 2.17-5.267 2.56-12.743.217-27.002 2.231-38.683-4.064-2.828-1.525-5.667-3.508-6.542-6.784-.329-1.233-.535-3.189.268-4.263 1.367-1.831 3.815-1.932 5.898-2.204"/><path fill="#F1AB54" d="M324.759 502.214c8.941-.49 19.923-1.194 28.355 2.428 5.533 2.378 9.502 6.178 11.664 11.807-1.258 1.307-2.662 2.386-4.085 3.505l-6.422.269c-11.704.65-26.87 1.128-36.989-5.928-1.89-1.318-3.516-3.116-3.884-5.466-.234-1.495-.073-3.401 1.013-4.544 2.333-2.455 7.254-1.97 10.348-2.071"/><path fill="#E7E6E6" d="M376.696 573.187c10.495-.778 27.734-1.561 36.943 3.738 2.983 1.716 8.266 5.596 8.78 9.226.16 1.128-.158 1.87-.981 2.626-1.492 1.371-3.445 1.782-5.389 1.878-10.355.638-28.454 1.44-37.752-3.669-2.825-1.553-7.436-5.11-8.098-8.506-.26-1.332-.083-2.425.746-3.526 1.409-1.87 3.642-1.652 5.751-1.767"/><path fill="#E7E6E6" d="M470.266 572.734c6.646-.316 12.777.558 18.347 4.507 2.328 1.65 5.936 4.493 6.123 7.601.081 1.345-.49 2.244-1.411 3.157-4.312 4.275-18.754 2.434-24.493 2.284-7.448-.416-14.129-1.075-20.339-5.738-2.771-2.081-5.433-4.57-5.948-8.131.249-.804.27-1.362.926-1.946 3.329-2.959 21.432-1.624 26.795-1.734"/><path fill="#E7E6E6" d="M402.364 607.506c9.41-.197 19.985-.976 29.271.335 6.684.944 13.419 4.17 17.425 9.747.915 1.273 1.582 2.609 1.092 4.215-.449 1.472-1.735 2.361-2.936 3.179-13.67.483-33.234 3.286-44.014-6.918-1.879-1.78-3.827-3.878-3.911-6.581.562-1.838 1.679-2.712 3.073-3.977"/><path fill="#24C19E" d="M393.468 502.682c11.548-.375 26.014-2.505 36.193 3.984 3.26 2.078 7.2 5.329 8.039 9.289-.137.602-.146 1.254-.594 1.716-1.343 1.387-4.103 2.081-5.981 2.335-8.446.036-20.85 1.1-28.857-.539-5.164-1.057-12.977-5.659-15.658-10.283-.848-1.46-.76-2.423-.316-3.993 2.074-2.263 4.31-2.23 7.174-2.509"/><path fill="#E7E6E6" d="M356.849 537.227c8.927-.232 19.185-.625 27.123 3.906 3.6 2.054 7.637 5.008 8.795 9.149-.142.877-.065 1.429-.692 2.117-2.889 3.171-10.285 2.394-14.326 2.487-8.51.143-19.722 1.17-27.283-3.072-3.006-1.687-8.979-5.631-9.443-9.213-.179-1.385.052-2.078.988-3.115 2.614-2.901 11.165-2.165 14.838-2.259"/><path fill="#E7E6E6" d="M423.389 537.211c10.801-.85 29.46-1.38 38.157 5.744 2.073 1.698 3.486 3.897 3.735 6.602.114 1.233-.037 2.303-.999 3.192-1.631 1.507-4.075 1.597-6.157 1.707-9.698.031-20.301 1.551-29.621-1.596-4.413-1.49-12.513-5.655-14.041-10.281-.402-1.216-.418-1.969.406-3.003 1.806-2.265 5.898-2.285 8.52-2.365"/><path fill="#E7E6E6" d="M190.738 356.616c-.622-3.66-.463-8.408 1.682-11.589 2.697-3.997 7.522-5.505 12.06-6.221 10.028-1.584 20.762-.226 30.906-.234 21.782-.018 43.596-.37 65.375-.017 9.728.157 21.247 1.935 30.694-.425 11.084-2.769 22.216-9.735 32.499-14.753a594 594 0 0 1 43.113-19.347c76.7-30.177 165.597-51.283 246.927-27.637 28.875 8.395 56.906 23.009 81.258 40.542l-.704.097c-12.167 1.606-30.854.499-43.77.484-24.977-.029-50.038.432-75.005-.081-17.368-.358-36.517-2.317-53.515 1.62-15.264 3.534-29.893 11.806-39.59 24.272-14.193 18.243-14.342 35.127-15.12 57.136-.2 5.665-1.336 11.929-.77 17.543.576 8.316.246 16.843.246 25.181l-.017 43.29-.033 42.365c-.061 7.489.17 15.364-.617 22.808-6.983-7.168-13.192-15.218-19.724-22.805l-37.625-43.612c-7.277-8.482-14.358-17.874-22.666-25.37-1.654-1.492-3.406-3.002-5.522-3.784-10.217-3.773-31.424-1.781-42.849-1.255 2.261 6.731 4.69 13.081 5.256 20.208-10.639.339-21.39-.059-32.044-.074l-78.057-.032c-15.935-.026-31.749-.467-47.689.165-3.883-5.706-4.903-14.005-6.868-20.563-2.263-6.811-3.93-13.903-5.887-20.814l-10.031-34.431-7.058-24.021c-1.805-6.047-4.023-12.385-4.855-18.646"/><path fill="#B6B2BA" d="M190.738 356.616c.539.573.977 1.013 1.311 1.739 1.409 3.067 2.251 6.847 3.271 10.083a1712 1712 0 0 1 7.333 23.974 3461 3461 0 0 1 16.953 57.302c2.138 7.672 5.758 17.42 5.831 25.377-3.883-5.706-4.903-14.005-6.868-20.563-2.263-6.811-3.93-13.903-5.887-20.814l-10.031-34.431-7.058-24.021c-1.805-6.047-4.023-12.385-4.855-18.646"/><path fill="#F55972" d="M272.741 371.162c6.034-.885 13.078-.118 18.907 1.588 11.18 3.273 29.439 14.595 34.955 25.238.721 1.392 1.066 2.35.543 3.843-1.622.409-3.124-.198-4.493-1.096-2.843-1.865-5.272-4.878-7.705-7.274-6.656-6.555-14.511-11.117-23.325-14.169a39 39 0 0 0-13.095-1.887c-11.531.32-21.904 5.705-27.134 16.214-1.386 2.786-2.882 7.278-5.122 9.357-1.014.942-1.503 1.057-2.848.974-1.145-.984-1.774-1.819-1.955-3.368-.538-4.608 3.671-10.772 6.315-14.328 6.558-8.818 14.11-13.439 24.957-15.092"/><path fill="#F55972" d="M280.439 387.664c6.366-.464 13.127 1.651 18.712 4.571 7.1 3.712 16.934 10.775 19.386 18.716-.228 1.452-.261 1.497-1.312 2.528-1.353.26-2.077.414-3.279-.494-2.064-1.56-3.545-4.284-5.171-6.291-3.905-4.821-9.872-8.172-15.393-10.776a33.6 33.6 0 0 0-9.632-1.798c-3.025-.107-5.862.458-8.704 1.445-10.209 3.543-8.629 11.436-15.328 17.585-1.03.149-.961.278-1.979-.244-1.117-.573-1.858-1.3-2.095-2.594-.626-3.412 2.139-7.867 4.065-10.518 5.406-7.443 11.756-10.772 20.73-12.13"/><path fill="#F55972" d="M283.424 404.536c5.477-.118 11.002 1.518 15.654 4.411 4.013 2.496 8.979 7.056 9.852 11.959.238 1.337.135 1.972-.59 3.091-3.916-.156-9.409-8.17-12.961-10.686l-.583-.405c-20.083-7.438-15.028 8.668-21.696 11.33-1.454-.618-2.718-1.829-3.26-3.341-.786-2.19.036-4.535 1.106-6.473 2.777-5.03 7.011-8.34 12.478-9.886"/><path fill="#24C19E" d="m506.778 418.006 106.881.037 34.055-.02c7.371-.002 14.887-.243 22.234.417 2.992.269 6.433.501 8.699 2.657 2.346 2.234 3.576 5.327 3.964 8.488.874 7.119.444 14.617.387 21.785l-.147 31.606-.265 106.903c-.052 6.09.018 11.585-4.712 16.162-2.812 2.722-7.399 3.37-11.177 3.722-9.902.924-20.307-.055-30.255-.21a4894 4894 0 0 0-50.976-.24c-9.817.021-19.927-.33-29.715.421-5.68-7.331-12.349-14.228-18.445-21.24a1448 1448 0 0 1-30.949-36.844c.787-7.444.556-15.319.617-22.808l.033-42.365.017-43.29c0-8.338.33-16.865-.246-25.181"/><path fill="#E7E6E6" d="m538.572 486.095 6.141-.101c6.937 11.062 12.829 22.984 19.272 34.365l.01-33.819c2.504.008 5.013.107 7.517.167.03 16.991.636 34.241-.281 51.203l-6.189.096c-6.397-11.455-12.474-23.074-18.952-34.488q-.178 17.195.002 34.392l-7.59.012z"/><path fill="#E7E6E6" d="M626.867 486.077c4.382-.278 8.879-.194 12.516 2.632 4.599 3.572 5.309 9.362 6.127 14.708l-7.431.108c-.498-3.003-1.013-6.1-3.064-8.49a5.48 5.48 0 0 0-4.067-1.943c-2.521-.074-5.067 1.058-6.81 2.854-3.991 4.116-4.31 11.093-4.254 16.521.058 5.684.828 12.689 5.263 16.731 1.408 1.284 3.276 2.237 5.224 2.022 2.972-.327 4.66-2.058 6.355-4.347l1.597-5.871 7.373-.12c-.147 2.434-.521 4.977-1.353 7.273-1.317 3.632-3.588 7.029-7.22 8.635-4.156 1.836-10.036 1.82-14.18-.033-4.477-2.002-7.454-5.956-9.048-10.505-3.079-8.793-3.157-22.613 1.187-31 2.668-5.15 6.438-7.517 11.785-9.175"/><path fill="#E7E6E6" d="M581.535 486.121c9.16-.218 18.324-.119 27.477.297l-.019 7.581-20.132.009q.054 6.757.039 13.514c5.366-.202 10.744-.142 16.113-.149.111 2.011.273 3.924-.141 5.915-1.028 1.247-1.124 1.11-2.747 1.362l-13.145-.036.021 22.856-7.855.224c-.286-17.191-.156-34.387.389-51.573"/><path fill="#2F2F41" d="M736.889 494.867c1.013-25.477.221-51.269.163-76.779-.033-14.496-1.463-30.616 2.018-44.745 3.09-12.543 10.311-24.728 19.76-33.523a70.08 70.08 0 0 1 50.825-18.796 69.98 69.98 0 0 1 48.071 22.333c7.413 8.046 13.205 18.71 15.738 29.367 4.131 17.381 2.19 36.761 2.092 54.533l-.111 67.714c-9.656-.637-19.46-.327-29.136-.216-6.712-1.256-23.54-.091-31.201-.058z"/></svg>