<svg xmlns="http://www.w3.org/2000/svg" width="1013" height="1013"><path fill="#E6E6E5" d="M189.818 100.123c29.112-26.466 58.777-52.934 89.306-77.73 8.436 13.481 17.353 26.657 25.942 40.042l41.067 64.423a2814 2814 0 0 0 16.81 25.834c4.483 6.797 9.53 13.643 12.845 21.093.097.22.201.435.3.654l.176.395c4.894.826 10.989.133 16.012.136q19.19-.07 38.378.15c.624-1.989 1.228-4.133 2.187-5.992 2.101-4.073 5.83-7.485 10.31-8.667a16.48 16.48 0 0 1 12.357 1.734c4.696 2.783 6.97 7.295 8.303 12.405q42.25.578 84.503.527c.644-2.09 1.242-4.303 2.254-6.249 1.99-3.826 5.392-6.897 9.556-8.128 4.058-1.199 8.739-.698 12.439 1.36 5.114 2.845 7.016 7.63 8.49 12.966l33.345.094c6.63.017 14.908.937 21.266-.706 5.363-10.534 12.485-20.37 19.008-30.22L683.9 99.968l32.58-49.989c5.86-9.09 11.278-18.56 17.647-27.304 30.727 24.572 60.197 50.824 90.551 75.86-10.633 10.364-20.264 22.049-30.013 33.244-12.496 14.351-25.114 28.57-37.406 43.1 7.599.944 15.945.299 23.648.358 21.744.167 43.555-.553 65.28-.002.835-4.679 2.505-8.867 6.46-11.76 3.79-2.773 8.806-3.695 13.38-2.788 4.193.832 8.148 3.268 10.448 6.922 2.143 3.405 2.38 7.277 1.411 11.11-1.118 4.424-3.24 7.984-7.298 10.254-3.225 1.804-6.37 2.229-9.961 2.61a95.4 95.4 0 0 0-9.202 14.148c1.442 5.585 2.587 12.084-.554 17.334-1.99 3.324-5.461 5.387-9.176 6.244a16.63 16.63 0 0 1-13.141-2.351c-3.56-2.364-6.185-6.038-6.987-10.26-.862-4.537.483-9.413 3.152-13.132 2.759-3.845 7.125-5.87 11.722-6.533 1.723-.249 3.47-.385 5.208-.475 2.341-2.95 6.801-7.91 6.707-11.828l-.297-.518-.747.72.814-.363c-3.307-3.145-86.279-1.491-98.373-2.504-13.85 16.757-29.308 32.544-43.857 48.728-8.572 9.536-16.613 20.544-26.098 29.114-6.48 7.908-13.832 15.35-20.734 22.917-8.468 9.282-16.857 19-25.83 27.784-10.291 11.795-20.876 24.216-32.041 35.18-.647-7.33-1.91-14.692-2.942-21.978-3.456-24.408-8.075-48.644-11.393-73.06.031-.136 41.17-63.84 44.66-68.651a1672 1672 0 0 0-51.894.892c-3.004 4.898-6.096 7.659-11.245 10.197l-.112 11.702c4.85 1.698 9.222 3.478 11.626 8.404 1.741 3.565 2.067 8.779.684 12.51-1.534 4.14-5.235 8.454-9.378 10.121-3.955 1.592-8.31.866-12.073-.913-4.248-2.008-7.779-5.423-9.298-9.934-1.349-4.006-1.135-8.631.861-12.386 2.356-4.426 6.163-6.37 10.625-8.148-.318-3.652-.374-7.272-.39-10.936-5.544-2.73-9.686-5.302-12.449-11.15-28.32.013-56.776.61-85.083-.087-3.15 5.55-6.73 8.433-12.638 10.789.364 3.649.35 7.284.36 10.948 4.63 1.817 8.336 4.26 10.45 8.976 1.875 4.189 1.673 9.148-.028 13.353-1.62 4.007-4.656 7.31-8.655 9.01-4.091 1.74-8.531 1.568-12.574-.213-4.473-1.972-7.538-5.541-9.208-10.116-1.36-3.725-1.398-7.754.362-11.354 2.342-4.793 7.15-8.152 11.868-10.347l-.073-9.923c-5.57-2.767-9.38-5.477-12.437-11.014l-31.378.008c-6.161 0-12.48.263-18.621-.192 1.379 4.33 8.976 14.052 11.838 18.62l31.502 50.966c12.56 17.08 24.18 34.864 36.207 52.319 14.643 21.25 29.695 42.344 43.11 64.403a549 549 0 0 1-18.6 21.023c-2.192-2.4-4.17-5.102-7.685-5.3-2.14-.12-3.843.667-5.417 2.08-3.255 2.921-6.021 8.024-8.113 11.9-4.757-5.539-10.931-10.235-16.07-15.48a755 755 0 0 1-34.686-38.491c-4.69-4.476-8.942-9.558-13.397-14.285-6.316-6.7-12.949-13.252-18.77-20.388-16.352-16.6-31.777-34.048-47.431-51.296-6.19-5.894-11.818-12.694-17.536-19.055a3414 3414 0 0 1-30.97-34.868c-6.412-7.3-12.75-15.508-20.162-21.786-3.763 1.513-26.16.015-32.162-.021l-37.75-.06c-9.368 0-18.722-.194-28.068.57 1.802 5.098 4.514 9.478 7.474 13.98 3.053.291 5.964 1.038 8.663 2.536 3.853 2.139 6.728 5.574 7.856 9.863a16.69 16.69 0 0 1-1.708 12.681 15 15 0 0 1-9.582 7.088c-4.569 1.05-9.946-.198-13.781-2.847-3.28-2.264-5.878-6.22-6.397-10.185-.746-5.71.445-9.519 3.787-14.056-2.687-3.46-4.978-7.376-7.388-11.04l-1.52-.23c-2.46-.357-4.666-.835-6.985-1.775-4.092-1.657-7.903-4.311-9.609-8.536-1.582-3.92-1.34-8.468.5-12.256a17.87 17.87 0 0 1 10.603-9.07c4.022-1.298 8.646-1.183 12.38.921 5.664 3.192 7.384 9.232 8.957 15.069q30.502.482 61.008.357c8.49.008 17.932.982 26.28-.09l.303-.57c-22.443-25.133-44.339-50.534-67.683-74.863"/><path fill="#24C19E" d="M734.127 22.674c30.727 24.572 60.197 50.824 90.551 75.86-10.633 10.364-20.264 22.049-30.013 33.244-12.496 14.351-25.114 28.57-37.406 43.1-6.63-1.1-16.646.251-23.64.261l-56.262-.468a38 38 0 0 0-.406-1.172c-2.158-5.942-5.092-11.634-11.203-14.315a15.9 15.9 0 0 0-12.337-.145c-6.863 2.807-9.738 8.755-12.48 15.133l-5.267.292c5.363-10.534 12.485-20.37 19.008-30.22L683.9 99.968l32.58-49.989c5.86-9.09 11.278-18.56 17.647-27.304"/><path fill="#24C19E" d="M189.818 100.123c29.112-26.466 58.777-52.934 89.306-77.73 8.436 13.481 17.353 26.657 25.942 40.042l41.067 64.423a2814 2814 0 0 0 16.81 25.834c4.483 6.797 9.53 13.643 12.845 21.093.097.22.201.435.3.654l.176.395a65 65 0 0 1-4.073.138c-2.976-1.227-4.146-7.219-5.508-9.96-1.767-3.56-5.86-6.697-9.638-7.802-3.766-1.1-7.748-.416-11.136 1.484-6.296 3.528-8.584 9.33-10.308 15.918l-51.708.019c-5.94.019-11.873.252-17.811.311-2.865.028-5.725-.228-8.581.045-22.443-25.134-44.339-50.535-67.683-74.864"/><path fill="#E6E6E5" d="M424.16 251.88c12.56 17.08 24.18 34.865 36.207 52.32 14.643 21.25 29.695 42.344 43.11 64.403a549 549 0 0 1-18.6 21.023c-2.192-2.4-4.17-5.102-7.685-5.3-2.14-.12-3.843.667-5.417 2.08-3.255 2.921-6.021 8.024-8.113 11.9-4.757-5.539-10.931-10.235-16.07-15.48a755 755 0 0 1-34.686-38.491c.671-8.787 1.925-17.602 2.934-26.359q3.85-33.086 8.32-66.095"/><path fill="#24C19E" d="M631.519 182.098a74.6 74.6 0 0 1 10.834-.11c3.821 4.267 7.254 7.813 12.031 10.972.12 4.293.1 8.643.467 12.921-5.667 3.299-11.212 6.867-12.936 13.68-1.146 4.53-.188 9.375 2.279 13.312a47 47 0 0 0 3.246 4.484l-5.76 2.48c-2.649 16.762-4.53 33.539-6.438 50.393-.724 6.39-2.4 14.023-2.007 20.377-10.292 11.795-20.877 24.216-32.042 35.18-.647-7.33-1.91-14.692-2.942-21.978-3.456-24.408-8.075-48.644-11.393-73.06.031-.136 41.17-63.84 44.66-68.651"/><path fill="#24C19E" d="M369.042 181.583c4.018-.154 7.832-.215 11.778.712 1.379 4.33 8.976 14.052 11.838 18.62l31.502 50.966a3541 3541 0 0 0-8.32 66.095c-1.009 8.757-2.263 17.572-2.934 26.359-4.69-4.476-8.942-9.558-13.397-14.285-6.316-6.7-12.949-13.252-18.77-20.388.36-4.241-9.682-63.853-11.526-69.628l-6.12-3.114c2.436-2.15 4.608-4.524 6.003-7.488 2.008-4.266 2.301-9.146.514-13.544-2.253-5.543-6.67-8.247-11.862-10.559l.268-13.196c4.61-2.97 7.956-6.01 11.026-10.55"/><path fill="#24C19E" d="m675.632 181.522 46.704-.016c9.033.001 18.446-.545 27.417.558-13.85 16.757-29.308 32.544-43.857 48.728-8.572 9.536-16.613 20.544-26.098 29.114-.562-5.774.495-12.994-2.228-18.26-1.522-2.944-3.533-3.817-6.567-4.826 1.32-1.434 2.627-2.963 3.62-4.647 2.406-4.08 3.19-9.033 1.75-13.58-1.92-6.074-6.7-9.118-12.048-11.844l-.02-14.212c4.407-3.328 7.898-6.675 11.327-11.015"/><path fill="#24C19E" d="M264.64 182.657c.71-1.023.463-1.14 1.788-1.364 7.184-1.21 17.09-.318 24.598-.297 15.378.042 30.985-.455 46.334.55 3.192 4.817 6.26 8.236 11.233 11.351-.056 4.1-.025 8.224-.264 12.318-5.614 3.513-10.73 7.472-12.185 14.366-.936 4.435.109 8.916 2.625 12.657 1.215 1.806 2.713 3.364 4.304 4.837-3.83 1.62-6.398 2.769-8.011 6.914-1.651 4.24-1.46 9.848-1.754 14.377-6.19-5.894-11.818-12.694-17.536-19.055a3414 3414 0 0 1-30.97-34.868c-6.412-7.3-12.75-15.508-20.162-21.786"/><path fill="#2F2F41" d="M792.22 477.772c6.227 1.742 12.386 4.429 17.812 7.96 6.286 9.73 14.618 18.197 20.52 28.138 5.749 7.554 11.775 14.904 17.513 22.453a922 922 0 0 1-9.145 20.613l40.885.046c5.016.043 10.746-.435 15.683.11.158.043.316.09.475.13 8.72 2.18 33.367-2.459 38.765 4.533.588.76.669 1.702.379 2.61-.705 2.209-3.53 4.234-5.618 4.966-7.87 2.759-22.99 1.508-31.517 1.457.517 9.972.26 20.036.267 30.022l.034 50.378.098 173.347q12.483.195 24.966-.028c5.635-.097 11.91-.754 17.477.046 2.002.288 4.656.96 6.002 2.615 1.14 1.404 1.52 3.067 1.184 4.836-.289 1.521-1.022 2.684-2.312 3.532-1.531 1.005-3.367 1.366-5.166 1.5-5.158.384-10.506.012-15.69-.047q-10.485-.064-20.97.066c-33.192.105-66.423-.494-99.61-.057-.338 4.501.287 23.938-2.25 26.334-.135.128-.295.229-.444.343-2.987-.098-5.908-.154-8.894.042-.577-.103-1.127-.337-1.679-.53-3.041-4.353-3.034-20.7-3.493-26.783-13.722 1.323-28.014.305-41.823.536-.856 6.719-.228 20.22-3.184 25.582-.962.693-1.768.782-2.909.99-2.892-.163-5.771-.226-8.668-.257-.145-.07-.305-.115-.435-.21-3.301-2.434-1.262-20.882-2.305-25.726-.054-3.121.636-11.211-.96-13.6.712-1.192.464-2.335.407-3.65-.411-9.395-.306-18.783-.675-28.17-1.727-43.991-3.505-88.14-2.674-132.175.228-12.058 2.188-24.241 3.744-36.189.899-6.91 2.202-14.042 1.669-21.019-.875-10.443-.482-20.798-.13-31.253.364-7.915.083-15.942.042-23.867.106-23.059-3.576-47.05 14.027-64.971 1.618 2.832 3.074 5.266 5.717 7.297 4.834 3.713 10.986 4.582 16.9 3.827 10.39-1.327 19.661-7.628 25.986-15.777m22.037 125.844c3.384.962 6.846 1.668 10.21 2.701 2.317.711 4.076 1.339 5.248 3.583.125.944.115 1.428-.272 2.331-2.7 6.306-15.659 10.465-21.5 12.19 1.643 10.046.762 20.128.506 30.245l-.714 32.147-1.653 74.611c-.608 21.066-1.986 42.463-1.368 63.514 8.976-.845 18.603-.13 27.644-.15l55.977-.155c-1.06-13.213-.613-26.635-.567-39.883q.015-31.275.441-62.55c.578-50.587.364-101.266.1-151.86l-56.829.02c-5.557 11.207-12.658 21.564-17.223 33.256m-28.69 220.772.22-.247c1.127-4.362-7.637-74.694-8.602-84.582-3.493-35.771-5.998-71.707-9.965-107.418-1.966 10.417-2.736 21.188-3.878 31.73l-5.164 47.266c-3.915 37.544-8.565 75.224-11.38 112.865 12.627 1.075 26.1.978 38.77.386m21.803-238.674c2.547-3.155 5.743-11.888 7.036-15.975l-.655-.35c-2.174.181-4.34.398-6.521.394z"/><path fill="#24C19E" d="M792.22 477.772c6.227 1.742 12.386 4.429 17.812 7.96 6.286 9.73 14.618 18.197 20.52 28.138 5.749 7.554 11.775 14.904 17.513 22.453a922 922 0 0 1-9.145 20.613l40.885.046c5.016.043 10.746-.435 15.683.11.158.043.316.09.475.13 8.72 2.18 33.367-2.459 38.765 4.533.588.76.669 1.702.379 2.61-.705 2.209-3.53 4.234-5.618 4.966-7.87 2.759-22.99 1.508-31.517 1.457.517 9.972.26 20.036.267 30.022l.034 50.378.098 173.347q12.483.195 24.966-.028c5.635-.097 11.91-.754 17.477.046 2.002.288 4.656.96 6.002 2.615 1.14 1.404 1.52 3.067 1.184 4.836-.289 1.521-1.022 2.684-2.312 3.532-1.531 1.005-3.367 1.366-5.166 1.5-5.158.384-10.506.012-15.69-.047q-10.485-.064-20.97.066c-33.192.105-66.423-.494-99.61-.057l.462-12.06c8.976-.845 18.603-.13 27.644-.15l55.977-.155c-1.06-13.213-.613-26.635-.567-39.883q.015-31.275.441-62.55c.578-50.587.364-101.266.1-151.86l-56.829.02c-5.557 11.207-12.658 21.564-17.223 33.256 3.384.962 6.846 1.668 10.21 2.701 2.317.711 4.076 1.339 5.248 3.583.125.944.115 1.428-.272 2.331-2.7 6.306-15.659 10.465-21.5 12.19-2.562-7.052-4.203-14.438-4.2-21.951-11.172-1.225-23.12-.178-34.41-.12-13.2.068-26.476-.614-39.654.166-.875-10.443-.482-20.798-.13-31.253.364-7.915.083-15.942.042-23.867.106-23.059-3.576-47.05 14.027-64.971 1.618 2.832 3.074 5.266 5.717 7.297 4.834 3.713 10.986 4.582 16.9 3.827 10.39-1.327 19.661-7.628 25.986-15.777m15.15 107.942c2.547-3.155 5.743-11.888 7.036-15.975l-.655-.35c-2.174.181-4.34.398-6.521.394z"/><path fill="#E6E6E5" d="M814.485 528.033c5.457-4.613 10.478-9.7 16.067-14.163 5.749 7.554 11.775 14.904 17.513 22.453a922 922 0 0 1-9.145 20.613l40.885.046c5.016.043 10.746-.435 15.683.11.158.043.316.09.475.13 8.72 2.18 33.367-2.459 38.765 4.533.588.76.669 1.702.379 2.61-.705 2.209-3.53 4.234-5.618 4.966-7.87 2.759-22.99 1.508-31.517 1.457.517 9.972.26 20.036.267 30.022l.034 50.378.098 173.347q12.483.195 24.966-.028c5.635-.097 11.91-.754 17.477.046 2.002.288 4.656.96 6.002 2.615 1.14 1.404 1.52 3.067 1.184 4.836-.289 1.521-1.022 2.684-2.312 3.532-1.531 1.005-3.367 1.366-5.166 1.5-5.158.384-10.506.012-15.69-.047q-10.485-.064-20.97.066c-33.192.105-66.423-.494-99.61-.057l.462-12.06c8.976-.845 18.603-.13 27.644-.15l55.977-.155c-1.06-13.213-.613-26.635-.567-39.883q.015-31.275.441-62.55c.578-50.587.364-101.266.1-151.86l-56.829.02c-5.557 11.207-12.658 21.564-17.223 33.256 3.384.962 6.846 1.668 10.21 2.701 2.317.711 4.076 1.339 5.248 3.583.125.944.115 1.428-.272 2.331-2.7 6.306-15.659 10.465-21.5 12.19-2.562-7.052-4.203-14.438-4.2-21.951 1.103-5.581 2.032-11.294 3.627-16.756 2.547-3.155 5.743-11.888 7.036-15.975l-.655-.35-6.506.126c.072-4.415.232-8.833.352-13.247-1.337-10.522-.348-23.237-.315-33.97 2.546 1.704 4.852 3.775 7.203 5.735"/><path fill="#2F2F41" d="M807.282 522.298c2.546 1.704 4.852 3.775 7.203 5.735 4.34 4 8.865 7.922 12.573 12.533a178 178 0 0 1-7.355 16.373c-4.075.028-8.097.181-12.106-.671-1.337-10.522-.348-23.237-.315-33.97"/><path fill="#E6E6E5" d="M746.799 824.002c12.626 1.075 26.1.978 38.769.386 1.747 1.547 1.573 9.346 1.924 12.016-13.722 1.323-28.014.305-41.823.536q.67-6.459 1.13-12.938"/><path fill="#E6E6E5" d="M285.083 502.986c-.031 4.454.103 8.885.266 13.334 7.695.387 15.63 1.235 23.321 1.007.02 5.271-.05 10.564.086 15.833 6.542-1.393 13.546-1.753 20.207-2.3q16.912-1.234 33.808-2.686c4.086-5.578 13.626-21.634 20.426-22.699 1.145-.179 1.796.011 2.774.576.852 1.499 1.065 2.374.614 4.074-1.12 4.22-3.988 9.397-6.667 12.795 3.293.233 8.993-.024 11.667 1.876q.064.225.132.452c1.697 5.464 6.728 11.096 3.542 16.937-1.947 3.57-6.008 5.315-9.774 6.258-7.668 1.918-16.13.997-23.99 1.638-10.468.854-20.82 2.806-31.257 3.948-7.897.864-16.001.942-23.849 2.008-1 .137-1.527.342-2.262 1.059.082 6.234.032 12.403-.315 18.631-.416 6.219-2.676 28.214.749 32.673 1.658 8.39.02 23.934-.274 32.98l-2.079 64.254-1.697 52.83c-.264 9.027.163 18.67-.996 27.61-4.611-13.203-6.164-31.836-8.444-46.066l-12.12-71.817c-2.51-15.487-4.13-31.407-7.697-46.668-.799 19.74-2.486 39.445-3.693 59.163l-5.003 88.043c-1.098 18.73-2.679 37.454-3.055 56.22-.209 4.194-.764 8.788-.167 12.94-.313.64-.307 1.02-1.024 1.303-2.381.936-12.034 1.197-14.07.196l-.877-2.586q-64.431-.453-128.861.073c-13.799.018-27.746.675-41.516.264-1.949-.059-4.78-.06-6.424-1.193-1.243-.856-2.193-2.688-2.352-4.163-.16-1.476.167-3.16 1.16-4.295 1.104-1.26 3.57-1.567 5.146-1.772 5.216-.677 10.834-.225 16.093-.21l27.326.004c-.596-10.126-.218-20.442-.219-30.588l-.012-54.69-.44-169.338c-5.802.063-31.37 1.403-35.225-.482-2.212-1.08-3.994-3.01-4.723-5.382-.43-1.402-.426-2.935.448-4.176 3.905-5.546 35.436-2.108 43.194-3.298q.235-.038.469-.08c7.278-.935 15.535.048 22.938-.045q32.667-.576 65.338-.494c.168-13.414 6.803-28.596 6.446-39.42 5.62 2.183 11.492 3.469 17.357 4.784.9 5.452 1.006 11.167 1.046 16.68 16.592-13.962 37.09-23.235 54.53-35.995M123.798 825.32c5.488-.493 11.139-.223 16.652-.209l27.548.066q37.342-.247 74.686-.117c-1.025-8.266-1.367-16.693-1.903-25.005l-3.035-53.57c-2.473-39.475-6.073-79.112-6.503-118.664-.103-9.43.304-18.747 1.446-28.112.959-7.856 3.226-16.072 2.656-24-.524-1.918-.452-3.765-.43-5.73-8.466-.282-16.751.68-25.192.781l-60.294.135c-8.267.014-17.118.697-25.31-.008l-.06 177.04c-.015 25.766-.718 51.642-.261 77.393"/><path fill="#24C19E" d="M235.345 575.708c22.843-.25 45.622-.828 68.467.02-.416 6.218-2.676 28.213.749 32.672 1.658 8.39.02 23.934-.274 32.98l-2.079 64.254-1.697 52.83c-.264 9.027.163 18.67-.996 27.61-4.611-13.203-6.164-31.836-8.444-46.066l-12.12-71.817c-2.51-15.487-4.13-31.407-7.697-46.668-.799 19.74-2.486 39.445-3.693 59.163l-5.003 88.043c-1.098 18.73-2.679 37.454-3.055 56.22-.209 4.194-.764 8.788-.167 12.94-.313.64-.307 1.02-1.024 1.303-2.381.936-12.034 1.197-14.07.196l-.877-2.586-.681-11.743c-1.025-8.266-1.367-16.693-1.903-25.005l-3.035-53.57c-2.473-39.475-6.073-79.112-6.503-118.664-.103-9.43.304-18.747 1.446-28.112.959-7.856 3.226-16.072 2.656-24"/><path fill="#2F2F41" d="M234.769 560.452c5.824-5.91 39.57-34.86 46.444-37.383 1.037-.38 1.111-.46 2.137.03 2.697 4.247.732 12.887 1.118 17.998.352 4.652 1.603 9.944 5.43 12.982 3.756 2.984 9.617 3.469 14.229 3.017.082 6.234.032 12.403-.315 18.631-22.845-.847-45.624-.269-68.467-.02-.524-1.917-.452-3.764-.43-5.728.081-3.18-.041-6.35-.146-9.527"/><path fill="#FBACBD" d="M379.918 522.92c3.293.233 8.993-.024 11.667 1.876-3.474.875-8.499 1.789-11.867.265l-.363-.98z"/><path fill="#2F2F41" d="M112.47 552.712c-1.314-6.69-.581-14.528-.568-21.364l.048-38.28.048-109.705c0-20.121-.62-40.4-.107-60.5.112-4.377.41-8.848 1.422-13.12 2.19-1.943 5.005-2.326 7.835-2.568 7.186-.617 14.647.096 21.857.252 8.992.195 18.01.018 27.006.05 13.794.05 34.512-1.549 47.58.371 1.824.267 3.645 1.28 5.007 2.515.988.896 1.44 1.657 1.643 3 1.256 8.339.287 21.703.279 30.55-.02 25.265-.588 50.677.152 75.924 4.051-1.478 7.632-2.828 10.927-5.739.873-3.137 1.587-6.018 3.55-8.686 4.942-6.724 13.445-10.223 21.502-11.334 7.715-1.066 16.649-.267 22.968 4.66 7.177 5.594 7.855 12.273 8.834 20.573 2.708 3.213 6.261 6.061 8.533 9.556 6.04 9.294.255 18.536 3.341 26.644 5.858 1.613 11.56-5.29 17.325-3.184q.215.081.428.167c.32 1.745-.195 2.905-.798 4.537-11.534 2.783-24.496 11.448-32.658 19.914-3.815 8.903-3.866 16.464-3.54 26.041-17.44 12.76-37.938 22.033-54.53 35.995-.04-5.513-.146-11.228-1.046-16.68-5.865-1.315-11.738-2.601-17.357-4.784.357 10.824-6.278 26.006-6.446 39.42q-32.67-.082-65.338.494c-7.403.093-15.66-.89-22.938.046-1.806-1.494-3.373-3.048-4.96-4.765"/><path fill="#24C19E" d="M240.647 471.45c7.376 1.362 13.007 3.017 20.495.894 1.539 3.766 3.525 7.27 7.508 8.838a7.12 7.12 0 0 0 5.564-.112c2.87-1.296 4.357-4.097 5.432-6.9 2.945 1.264 5.718 2.662 8.978 2.775-3.815 8.903-3.866 16.464-3.54 26.041-17.44 12.76-37.938 22.033-54.53 35.995-.04-5.513-.146-11.228-1.046-16.68-5.865-1.315-11.738-2.601-17.357-4.784-.054-.138-.125-.272-.165-.416-1.463-5.31 3.864-16.113 6.13-20.73 5.046-10.277 11.177-20.995 22.53-24.921"/><path fill="#E6E6E5" d="m261.142 472.344.581-.467c3.53-2.874 6-5.948 6.48-10.661 1.413-13.894-18.649-33.195-5.09-44.663 3.48-2.943 8.314-4.311 12.826-3.726 4.255.552 8.454 2.753 11.027 6.238 2.821 3.818 3.377 8.934 2.5 13.5-2.66 13.863-18.283 27.097-9.82 41.604-1.075 2.804-2.563 5.605-5.432 6.901a7.12 7.12 0 0 1-5.564.112c-3.983-1.568-5.97-5.072-7.508-8.838"/><path fill="#2F2F41" d="M810.032 485.732c-4.533-11.505-10.595-23.188-13.349-35.258-1.872-8.204 0-16.635-1.013-24.878-1.195-9.729-6.533-13.327-7.786-20.742-.838-4.956-.445-10.349-.42-15.365l.133-23.976c.067-15.479-.784-31.337.05-46.761.137-2.525.391-5.374 1.35-7.724.471-1.154.87-1.581 2.055-2.02 3.8-1.411 8.142-1.71 12.155-1.907 12.685-.62 25.354.403 38.044.414 15.314.014 30.722-.913 46.014-.23 3.015.134 8.74.258 11.328 1.805 1.363.815 1.527 2.869 1.73 4.298 1.703 11.94.809 24.926.8 37.002l-.065 63.9-.043 86.943c.033 14.573.934 29.608.117 44.138-.185 3.285-.621 6.521-2.789 9.14-.815.985-1.858 1.788-2.855 2.58-4.937-.544-10.667-.066-15.683-.11l-40.885-.045a922 922 0 0 0 9.145-20.613c-5.738-7.549-11.764-14.899-17.513-22.453-5.902-9.941-14.234-18.407-20.52-28.138"/><path fill="#2F2F41" d="M304.56 608.4q44.017-.53 88.035-.166c-.24 28.523 1.296 57.211 1.959 85.731l2.958 130.42c.185 4.153-.004 8.46.382 12.577q.651 12.868.81 25.752c-12.663.35-25.352-.023-38.022.296-.262-8.783-.286-17.66-1.376-26.386-5.275.472-10.603-.183-15.903.125-2.762.033-5.538.007-8.298.104-.608 8.579-1.225 17.181-1.361 25.783-2.799-.04-6.493-.656-8.984.66-1.107 1.625-.95 3.039-1.088 4.948l-.157 4.903c-4.434-.136-14.775 1.01-18.432-.494-.17-3.11-.448-6.17-.828-9.26-1.919.13-3.843.447-5.676-.258-.988-3.958.119-20.453.217-25.727l.004-12.412c.7-12.958 1.453-25.95.715-38.923 1.16-8.94.732-18.582.996-27.609l1.697-52.83 2.079-64.254c.295-9.046 1.932-24.59.274-32.98m53.992 216.144c-.76-11.174-1-22.437-1.61-33.63a4474 4474 0 0 0-6.134-100.091c-.731-9.993-.34-20.197-1.577-30.153-.251-2.028-.44-3.943-2.106-5.252-1.01.973-1.065 2.506-1.198 3.836-1.737 17.326-2.013 35.078-3.115 52.482l-6.95 112.754q11.344.13 22.69.054"/><path fill="#E6E6E5" d="M335.862 824.49q11.344.13 22.69.054.247 6.049.754 12.08c-5.275.472-10.603-.183-15.903.125-2.65-.37-5.445-.213-8.12-.223.132-4.013.467-8.016.579-12.036"/><path fill="#E6E6E5" d="M304.255 863.393c5.389-1.075 13.653-.485 19.19-.16.345 1.67.257 3.317.227 5.011l-.157 4.903c-4.434-.136-14.775 1.01-18.432-.494-.17-3.11-.448-6.17-.828-9.26"/><path fill="#2F2F41" d="M534.096 609.768c12.341 1.04 24.625.567 36.994.382l33.5-.178c6.359-.043 12.947-.465 19.284-.077-1.148 19.518.238 39.008.364 58.529l2.43 154.931.548 13.631c-.179 8.629-.053 17.26.377 25.878-12.263-.743-24.647.233-36.922.244-.54-8.735-.794-17.493-1.237-26.234-7.03-.194-14.006-.384-21.041-.356-.192 8.993-1.035 18.012-1.11 26.988q-11.392.087-22.779-.205c-5.085-.123-10.433-.596-15.493-.175q.05-13.131-.222-26.261.314-6.362.456-12.731l4.051-162.815q.363-15.667.918-31.329c.204-6.522 1.04-13.802-.118-20.222m34.463 214.298 20.267.083L583.6 723.78c-1.24-25.304-2.005-50.551-5.242-75.704-1.337 14.391-1.71 28.82-2.598 43.24l-5.718 99.249c-.587 11.153-.652 22.372-1.482 33.5"/><path fill="#E6E6E5" d="m568.56 824.066 20.266.083c.168 4.208.157 8.54.608 12.725-7.03-.194-14.006-.384-21.041-.356-.127-4.14.075-8.311.166-12.452"/><path fill="#F77986" d="M673.821 384.863c5.572 3.48 15.436 5.316 21.85 6.107.614 1.502.867 2.708.711 4.337-.637 6.664-8.89 32.964-11.783 39.77-8.749 20.593-55.584 54.072-58.398 65.926-1.793 7.562-1.079 16.29-1.076 24.039l.076 34.178c-.022 4.047-.12 8.109.028 12.153-.035 9.212 1.418 30.649-1.355 38.522-6.337-.388-12.925.034-19.284.077l-33.5.178c-12.369.185-24.653.657-36.994-.382-1.965-8.513-1.61-29.419-.955-38.447.079-3.517.706-8.99-.77-12.256 1.075-2.71-.197-20.41-.298-24.474-2.848 5.465-6.831 10.69-12.86 12.845-4.524 1.616-9.706.9-13.939-1.266-3.84-1.963-6.598-5.226-7.726-9.404-3.273-12.12 10.178-35.137 16.349-45.872 7.4-12.875 15.978-29.601 30.853-34.669 4.184-1.426 8.786-1.09 12.797-2.352.166-.053.323-.127.486-.19.137-7.146.072-14.294-.197-21.436 6.599 4.269 14.762 5.404 22.414 3.662 3.208-.73 5.928-2.05 8.494-4.096.647 5.847.422 11.866.469 17.746.115 1.545.205 2.908.757 4.376 6.192.479 12.339.891 18.444 2.09 9.824-4.751 18.38-10.897 27.434-16.891 6.975-4.618 15.18-8.633 20.651-15.103 5.874-6.947 13.387-37.09 17.322-39.168"/><path fill="#E6E6E5" d="M557.836 432.247c6.599 4.269 14.762 5.404 22.414 3.662 3.208-.73 5.928-2.05 8.494-4.096.647 5.847.422 11.866.469 17.746-.036 1.382.155 3.25-.504 4.447-3.383.237-29.024.792-30.676-.322q.206-10.722-.197-21.437"/><path fill="#E6E6E5" d="M586.858 250.748c3.318 24.417 7.937 48.653 11.393 73.06 1.032 7.287 2.295 14.65 2.942 21.978-4.442 6.025-27.732 29.309-28.834 33.182 6.584.322 13.25 2.68 17.826 7.596 4.946 5.312 6.924 12.684 6.574 19.81-.438 8.907-3.889 17.635-8.015 25.44-2.566 2.046-5.286 3.365-8.494 4.095-7.652 1.742-15.815.607-22.414-3.662-2.366-4.19-3.84-8.771-6.36-12.933-11.32-8.219-38.644-37.21-45.279-48.872 14.848-19.787 28.165-41.027 41.997-61.559 12.963-19.242 26.803-38.2 38.664-58.135"/><path fill="#2F2F41" d="M572.359 378.968c6.584.322 13.25 2.68 17.826 7.596 4.946 5.312 6.924 12.684 6.574 19.81-.438 8.907-3.889 17.635-8.015 25.44-2.566 2.046-5.286 3.365-8.494 4.095-7.652 1.742-15.815.607-22.414-3.662-2.366-4.19-3.84-8.771-6.36-12.933-2.854-10.16-4.798-20.371.899-30.05 5.511-9.366 10.978-7.75 19.413-10.11.193-.053.381-.124.571-.186"/><path fill="#E6E6E5" d="M463.662 398.306c2.092-3.876 4.858-8.979 8.113-11.9 1.574-1.413 3.277-2.2 5.417-2.08 3.515.198 5.493 2.9 7.686 5.3 6.765 6.74 14.598 12.968 18.239 22.014-2.43 4.074-5.287 6.876-8.948 9.851-4.936 16.47-10.565 32.334-17.232 48.204-2.263 5.386-4.342 11.268-7.722 16.067a23.6 23.6 0 0 1-8.505 7.476c-12.822 6.705-31.155 5.578-45.215 4.283.624-8.775.362-17.714.424-26.514 6.803 1.649 23.551 5.667 29.713 2.052 6.438-3.777 17.098-24.834 20.704-32.18 1.857-3.782 3.457-8.216 5.704-11.742-4.714-3.978-14.58-11.673-15.507-18.137-.688-4.804 4.46-9.167 7.13-12.694"/><path fill="#2F2F41" d="M463.662 398.306c2.092-3.876 4.858-8.979 8.113-11.9 1.574-1.413 3.277-2.2 5.417-2.08 3.515.198 5.493 2.9 7.686 5.3 6.765 6.74 14.598 12.968 18.239 22.014-2.43 4.074-5.287 6.876-8.948 9.851-.07-5.012-.847-11.266-4.602-14.97-1.16-1.144-2.657-1.813-4.303-1.664-2.457.22-4.908 1.876-6.325 3.842-4.34 6.02-2.423 14.42-6.899 20.438-4.714-3.978-14.58-11.673-15.507-18.137-.688-4.804 4.46-9.167 7.13-12.694"/><path fill="#E6E6E5" d="m674.14 509.898 3.569-.289c6.169 2.47 5.804 8.54 10.098 12.578 8.172 7.683 31.046 21.892 41.784 25.209.041 7.925.322 15.952-.043 23.867-34.761.007-69.565-.395-104.32.11-.147-4.044-.049-8.106-.027-12.153 7.56-.863 18.895-.067 26.845-.091l60.538-.28c-8.226-6.444-16.649-12.652-24.848-19.119-4.337-3.42-8.403-7.294-12.99-10.375-2.077-1.193-6.53.607-9.023.718l-2.19-.346c-1.071-.167-2.022-.271-2.968-.878-2.135-1.368-2.213-5.066-2.595-7.38 2.929-.34 5.13-1.28 7.602-2.875-.39-.474-.704-1.031-1.036-1.546.072-1.573.052-3.005-.195-4.564l-.071-.426c2.17-1.718 7.068-1.774 9.87-2.16"/><path fill="#2F2F41" d="m674.14 509.898 3.569-.289c-.136 2.947.289 9.307-1.976 11.53-.81.795-1.999 1.106-3.103.865-1.141-.25-2.46-1.09-3.432-1.71l-3.626-1.7c-.39-.474-.704-1.031-1.036-1.546.072-1.573.052-3.005-.195-4.564l-.071-.426c2.17-1.718 7.068-1.774 9.87-2.16"/><path fill="#00AA63" d="M664.27 512.058c2.048 1.094 4.014 1.816 4.745 4.195.372 1.21.213 2.786.183 4.04l-3.626-1.7c-.39-.473-.704-1.03-1.036-1.545.072-1.573.052-3.005-.195-4.564z"/><path fill="#E6E6E5" d="M757.666 462.232c-3.294-1.497-6.66-2.876-9.28-5.458-6.684-6.59-8.89-19.704-8.75-28.682.083-5.38 1.214-11.355 5.333-15.159 2.991-2.762 6.913-3.67 10.9-3.397 18.706 1.276 11.654 26.773 12.803 38.672.55 5.703 2.876 11.262 4.97 16.55 1.136 2.872 2.278 6.66 4.447 8.91 3.715 3.852 9.142 4.023 14.132 4.104-6.325 8.149-15.595 14.45-25.986 15.777-5.914.755-12.066-.114-16.9-3.827-2.643-2.03-4.1-4.465-5.717-7.297 4.115-2.907 9.094-4.722 13.506-7.203.763-4.316.65-8.628.542-12.99"/><path fill="#2F2F41" d="M330.268 434.27c-7.115-9.486-11.19-18.474-9.45-30.592.917-6.393 3.908-12.515 9.2-16.384a22.3 22.3 0 0 1 17.477-3.884 24.53 24.53 0 0 1 16.058 11.092c4.19 6.73 4.857 14.77 3 22.356-1.951 7.979-6.271 12.624-10.93 19.062a20.2 20.2 0 0 1-8.705 3.549c-6.212.911-11.813-1.481-16.65-5.199"/><path fill="#E6E6E5" d="M394.677 558.926q41.51-.262 83.019-.087c18.201.013 36.483-.288 54.674.226 1.477 3.266.85 8.74.77 12.256l-85.926.044c-17.505.118-34.977.818-52.492.349z"/><path fill="#2F2F41" d="M679.942 372.034c-3.222-3.367-16.25-13.38-16.778-17.345-.517-3.892 15.544-24.145 19.009-27.238 1.162-1.037 2.262-1.964 3.89-1.898 5.47 2.646 19.39 21.52 22.982 27.27-1.636 3.554-3.745 6.535-6.019 9.7-1.938 4.98-3.545 8.306-7.27 12.185-.517 5.33-.453 10.922-.084 16.262-6.415-.79-16.28-2.627-21.85-6.107 3.153-2.776 4.666-8.962 6.12-12.829"/><path fill="#E6E6E5" d="M679.942 372.034c1.953-3.579 1.65-8.852 2.575-12.86.961-4.172 2.859-7.406 5.108-10.972 8.417 3.394 11.396 6.09 15.401 14.321-1.938 4.98-3.545 8.306-7.27 12.185-.517 5.33-.453 10.922-.084 16.262-6.415-.79-16.28-2.627-21.85-6.107 3.153-2.776 4.666-8.962 6.12-12.829"/><path fill="#E6E6E5" d="M529.245 824.134q-.142 6.37-.456 12.73l-130.895.098c-.386-4.117-.197-8.424-.382-12.577 16.16.382 32.376.063 48.541-.03q41.595-.349 83.192-.221"/><path fill="#E6E6E5" d="M626.667 823.355c23.732.496 47.53.204 71.271.252 9.681.019 19.612-.426 29.27.113 1.596 2.388.906 10.478.96 13.599-33.587.748-67.347-.12-100.952-.333z"/><path fill="#24C19E" d="M646.548 488.775c9.189.014 18.39.392 27.584.48l.008 20.643c-2.802.386-7.7.442-9.87 2.16l.071.426c.247 1.56.267 2.99.195 4.564.332.515.646 1.072 1.036 1.546-2.471 1.595-4.673 2.534-7.602 2.875-3.676-.31-7.331-.556-11.019-.666-1.31-10.373-.485-21.564-.403-32.028"/><path fill="#E6E6E5" d="M330.268 434.27c4.837 3.718 10.438 6.11 16.65 5.199 3.14-.483 6.122-1.7 8.705-3.55.803 4.527 1.208 9.736 3.47 13.793 2.827 1.681 7.04 3.519 8.394 6.678-.091.698.06 1.103-.57 1.543-3.382 2.364-38.61 1.211-43.358.106-.85-.198-1.567-.503-2.277-1.008.603-1.632 1.118-2.792.798-4.537 4.474-8.149 5.65-8.396 8.188-18.224"/><path fill="#2F2F41" d="M541.445 873.211c3.852-.231 7.795-.061 11.657-.061.039 2.513.817 13.936-.735 15.173-3.724 2.965-23.162 1.687-28.431 1.534-2.655.029-5.378.157-8.025-.023-1.853-.127-4.043-.548-5.267-2.035-.019-1.074-.028-1.333.702-2.204 4.063-4.85 23.503-11.805 30.099-12.384"/><path fill="#2F2F41" d="M375.489 873.025c15.576-.119 16.675-.03 30.596 7.217 3.231 1.682 7.196 3.397 9.916 5.83 1.344 1.204 1.278 2.004 1.322 3.675a42 42 0 0 1-3.336.333c-6.555.365-33.57 1.68-37.646-1.948-1.852-4.526-1.035-10.291-.852-15.107"/><path fill="#E6E6E5" d="M259.503 824.948c13.047.007 26.283-.904 39.297.048l-.004 12.412c-5.921-.015-35.689-1.023-39.46.48-.597-4.151-.042-8.745.167-12.94"/><path fill="#2F2F41" d="M323.515 873.147c-.039 2.076.014 4.157.018 6.234.006 2.185.413 8.23-1.36 9.636-2.57 2.037-21.229 1.257-25.694 1.194-2.473-.036-6.823.092-8.597-1.748.009-.134.002-.27.028-.403.718-3.686 13.52-12.396 17.173-15.407 3.657 1.505 13.998.358 18.432.494"/><path fill="#2F2F41" d="M602.007 873.287c8.358-.378 13.849-1.187 21.485 3.146 3.33 1.89 12.885 7.467 13.612 11.429.126.683-.257 1.005-.587 1.56l-35.691.052c0-5.052-.406-10.658.377-15.63z"/><path fill="#2F2F41" d="M244.336 848.325c2.522.203 5.023.118 7.55.119 2.17 0 4.475.006 6.559.678 3.223 1.04 23.548 11.352 24.469 12.533.884 1.134.77 1.38.586 2.72-.14.036-.281.077-.423.108-5.661 1.247-12.177.3-17.963.33-4.52.024-9.127.584-13.634.285-1.999-.131-4.225-.358-5.934-1.452-2.048-4.377-1.253-10.557-1.21-15.32"/><path fill="#2F2F41" d="M701.874 889.891c8.14-8.033 19.989-12.084 30.47-16.248 2.648.353 5.092.356 7.75.247.532.302 1.05.742 1.544 1.106 2.013 3.985.763 10.955.292 15.303-13.293-.398-26.818.768-40.056-.408"/><path fill="#2F2F41" d="M801.874 873.563c5.06 2.987 5.959 11.565 7.701 16.822-8.004.104-15.978.422-23.958-.364.41-2.46.89-4.852 1.642-7.235 1.06-3.356 2.337-7.257 5.623-8.982 2.877.325 6.152.374 8.992-.24"/><path fill="#2F2F41" d="M665.723 530.073c2.493-.11 6.946-1.911 9.023-.718.164 4.777.304 9.585.282 14.365-2.994.007-6.11-.155-9.077.22q-.254-6.932-.228-13.867"/><path fill="#FBACBD" d="M792.664 863.717c2.986-.196 5.907-.14 8.894-.042-.65 3.32-.995 6.67.316 9.888-2.84.615-6.115.566-8.992.24.95-3.434.41-6.662-.218-10.086"/><path fill="#E6E6E5" d="M730.908 863.255c2.897.03 5.776.094 8.668.256-.09 2.88-.858 7.804.519 10.379-2.659.109-5.103.106-7.75-.247.356-2.886.296-8.041-1.437-10.388"/></svg>