<svg xmlns="http://www.w3.org/2000/svg" width="1013" height="1013">
    <path fill="#24C19E" d="m744.272 201.306 77.315-.044-.21 70.671c-.026 12.128.436 24.474-.135 36.577 10.593-10.658 21.043-21.41 31.951-31.75 6.337 5.047 11.927 11.647 17.58 17.46 10.914 11.222 21.756 22.584 32.98 33.496-6.59 5.28-11.632 12.393-12.414 21.022-.695 7.672 2.306 15.117 7.275 20.863 4.573 5.287 10.812 8.88 17.894 9.216 7.455.353 14.693-2.719 20.02-7.85 1.347-1.298 2.514-2.725 3.667-4.194 9.626 9.148 18.814 18.795 28.199 28.194 8.728 8.743 17.721 17.274 26.295 26.16l-106.31 103.45-32.24 32.165c-7.357 7.36-14.558 15.226-22.894 21.5q-.05 7.65.043 15.3c-16.627-.726-33.511-.176-50.163-.194l-98.55.022-255.474.123c.841-12.924-3.512-38.303 5.5-47.734 4.417-4.622 9.923-5.555 16.008-5.649l26.975-.09c12.591.137 134 .817 136.8-.24l.19-.99c-1.012-11.138-.23-23.031-.325-34.267-.166-19.663-.87-39.242.184-58.899-6.671-11.097-12.085-23.06-17.817-34.66-11.8-23.88-23.434-48.417-37.04-71.307-6.445 3.47-12.604 7.486-19.071 10.947-40.9 21.897-82.472 42.788-123.738 64.003 4.91 11.237 10.46 22.115 16.197 32.946l-2.13 1.785c-5.328 1.872-12.786 7.776-16.93 8.75-16.78-30.959-32.815-62.3-49.37-93.377-10.634-19.963-23.38-40.028-31.22-61.218 21.17-12.4 43.94-23.283 66.317-33.34 4.119 8.672 9.342 15.764 18.775 19.05 7.53 2.623 15.991 1.745 23.081-1.775 7.257-3.603 12.767-10.42 15.27-18.075 3.07-9.402 1.098-18.152-3.381-26.678a53 53 0 0 0-.759-1.393c21.393-10.337 42.335-21.975 64.176-31.354l59.289 112.129 22.777 43.88c5.03 9.643 9.89 19.886 15.993 28.883-1.394-64.471-.018-129.006-.549-193.487l76.4-.015c-.566 9.825-.517 17.882 6.439 25.684a27.16 27.16 0 0 0 18.85 8.996c7.402.38 14.846-2.47 20.27-7.492a27.21 27.21 0 0 0 8.71-19.517c.06-2.563-.254-5.164-.7-7.683m-30.266 338.76c-4.041-3.703-16.577-14.388-17.22-19.101-.026-.196-.016-.396-.024-.594 1.002-.293.558-.344 1.578.182 6.398 3.298 15.125 13.545 19.53 19.168q33.671.585 67.347.41c-9.237-8.585-17.878-17.843-26.866-26.693-6.894-6.79-14.542-13.384-20.992-20.551-1.221-1.357-1.994-2.538-2.542-4.274l.305-.95c2.112-.083 3.568 1.3 5.053 2.68 6.368 5.92 12.423 12.364 18.631 18.473 10.206 10.04 20.82 19.982 29.663 31.272 14.992-.47 29.39-3.167 41.74 7.242 6.767-6.006 13-12.79 19.394-19.196l33.787-33.723c-26.108-27.19-52.917-53.753-79.282-80.703-9.31-9.518-19.04-18.82-28.035-28.63-11.396 9.657-21.828 20.76-32.58 31.145a8390 8390 0 0 0-64.083 62.209c-13.792 13.566-27.263 27.746-41.768 40.55.435 7.034.36 14.116.408 21.163zm18.02-145.284c-9.396-.284-18.854-.21-28.254-.122-4.438.04-8.996.394-13.423.111-2.041-.131-3.93-.177-5.331-1.768l.45-.622c8.41-3.193 39.974-1.595 49.668-.827 9.844-6.617 18.11-17.13 26.457-25.51 8.837-8.873 18.176-17.2 26.401-26.67l-106.68.451c-14.577.06-29.185.553-43.756.443l.528 146.957 57.869-56.931c11.99-11.743 24.756-23.132 36.071-35.512m-200.319-91.27c-.888-1.758-1.906-4.677-3.894-5.335-14.364 8.561-29.533 15.656-44.436 23.21l-54.916 28.149c-10.894 5.5-22.26 10.563-32.758 16.792.721 1.54 1.325 3.413 2.567 4.581l.541-.132c32.019-14.713 64.56-32.854 96.122-48.99 11.768-6.017 24.396-13.825 36.774-18.275M916.21 455.99c-5.385-6.79-11.867-12.924-17.996-19.054a3929 3929 0 0 0-30.819-30.367c-16.477-16.238-32.116-33.35-48.538-49.637-1.292-1.28-2.848-3.136-4.526-3.841l-3.823 3.153c21.701 22.6 43.957 44.794 66.056 67.01 12.17 12.234 23.864 25.11 36.668 36.682zM795.38 288.765l-67.679-.044c-17-.037-34.04-.361-51.037-.112-11.02.065-22.055.061-33.075.296.259 1.816.417 3.523.368 5.358 13.822.486 27.708.057 41.54.04l77.468-.004c10.718.038 21.744.97 32.412.028z"/><defs><linearGradient id="a" x1="803.98" x2="800.744" y1="477.584" y2="481.227" gradientUnits="userSpaceOnUse"><stop offset="0" stop-color="#32343C"/><stop offset="1" stop-color="#3F364E"/></linearGradient></defs><path fill="url(#a)" d="M780.769 456.606c5.625 2.106 38.174 36.081 43.519 42.374 1.444 1.701 1.105 2.272.905 4.344-3.345-1.093-40.483-38.049-44.098-42.812-.993-1.308-.517-2.397-.326-3.906" transform="scale(.98926)"/><path fill="#2F2F41" d="M785.217 540.13c-9.237-8.584-17.878-17.842-26.866-26.692-6.894-6.79-14.542-13.384-20.992-20.551-1.221-1.357-1.994-2.538-2.542-4.274l.305-.95c2.112-.083 3.568 1.3 5.053 2.68 6.368 5.92 12.423 12.364 18.631 18.473 10.206 10.04 20.82 19.982 29.663 31.272 14.992-.47 29.39-3.167 41.74 7.242 4.548 10.502 2.403 19.97 3.036 30.911q-.05 7.65.043 15.302c-16.627-.727-33.511-.177-50.163-.195l-98.55.022-255.474.123c.841-12.924-3.512-38.303 5.5-47.734 4.417-4.622 9.923-5.555 16.008-5.649l26.975-.09c12.591.137 134 .817 136.8-.24l.19-.99.386 1.045c4.949 1.272 17.18.34 23.09.31l75.956-.078c-4.041-3.704-16.577-14.39-17.22-19.102-.026-.196-.016-.396-.024-.594 1.002-.293.558-.344 1.578.182 6.398 3.298 15.125 13.545 19.53 19.168q33.671.585 67.347.41"/><path fill="#2F2F41" d="M732.026 394.782c-9.396-.284-18.854-.21-28.254-.122-4.438.04-8.996.394-13.423.111-2.041-.131-3.93-.177-5.331-1.768l.45-.622c8.41-3.193 39.974-1.595 49.668-.827-1.015 1.088-2.006 2.231-3.11 3.228"/><path fill="#2F2F41" d="M313.81 401.48c10.184-2.007 28-3.78 37.325 2.246 9.77 6.314 38.967 50.533 48.73 63.151 4.56-2.93 9.702-5.609 14.04-8.79 4.143-.973 11.6-6.877 16.929-8.75 7.217 4.626 12.52 12.729 15.157 20.797l-2.849 1.844c-6.688 4.596-13.667 8.875-20.043 13.894-8.955 5.91-23.075 20.504-34.808 17.958-2.93-.635-5.68-2.165-7.859-4.207-6.905-6.47-18.137-23.834-24.445-32.438-5.075-6.924-10.919-13.676-15.537-20.89a704 704 0 0 0-4.123 57.8c-2.624-2.645-4.609-5.818-6.664-8.907a952 952 0 0 0 7.557-25.654c-7.514-2.265-15.91-2.018-23.648-3.357-15.694-2.717-32.026-8.722-46.455-15.415-4.915 11.406-9.793 23.543-13.447 35.402 7.044-.974 18.852-2.763 25.053 1.703 1.508 1.087 2.588 2.608 2.778 4.496.34 3.386-1.706 6.805-3.87 9.235-4.432 4.978-10.918 7.222-16.922 9.673 2.33 5.119 5.739 9.632 8.62 14.44 9.61-1.99 20.482-4.63 29.998-1.345 3.863 1.335 8.33 3.81 12.482 3.748 2.334-.035 3.677-1.213 4.884-3.06 1.83-2.801 3.063-6.262 4.386-9.34 5.39-1.226 10.17-2.618 15.23-4.798.07 30.658 10.097 255.137 6.328 262.716-1.29 2.73-1.375 5.652-1.401 8.628-8.88-1.388-18.127-.633-27.087-.364-.619-2.847-.922-5.617-1.173-8.514-2.542-16.441-3.56-33.149-5.405-49.684l-11.319-100.783c-1.933-17.19-3.457-34.449-5.828-51.58-5.063 13.915-5.309 40.12-6.538 55.85l-7.961 96.65-2.467 30.605c-.445 5.522-.661 11.182-1.52 16.651-.187 1.18-.447 1.883-1.52 2.464-2.048 3.322-1.825 6.027-5.036 8.718-6.962-1.565-18.808-.794-25.883-.16l.04-8.565c1.167-19.361.877-38.85 1.336-58.242l2.935-131.755 1.39-45.546c.203-6.912-.257-14.096.52-20.946-7.148 3.539-15.268 8.773-23.302 9.646-5.288.573-10.833-.873-14.96-4.274-4.402-3.627-7.326-9.367-7.82-15.029-.276-3.152.315-5.95 1.217-8.938 4.152-13.755 10.703-27.3 15.833-40.765 4.712-12.37 8.265-25.314 13.469-37.47 1.206-2.818 2.63-5.483 4.69-7.783 9.895-11.042 35.131-10.02 49.212-10.588 2.407.135 4.959 1.13 7.324 1.654 8.296 1.843 14.546.674 22.426-2.032"/><path fill="#A06169" d="M253.67 486.164c7.044-.974 18.852-2.763 25.053 1.703 1.508 1.087 2.588 2.608 2.778 4.496.34 3.386-1.706 6.805-3.87 9.235-4.432 4.978-10.918 7.222-16.922 9.673-2.414-.6-6.936 1.72-9.257 2.591-1.038-8.62-2.032-17.347-3.933-25.827a62 62 0 0 0 6.151-1.871"/><path fill="#A06169" d="M239.539 773.548c10.202.39 20.633-.1 30.879.007-2.048 3.322-1.825 6.027-5.036 8.718-6.962-1.565-18.808-.794-25.883-.16z"/><path fill="#A06169" d="M312.976 773.382c9.901.382 19.731-.348 29.661.25-1.29 2.73-1.375 5.652-1.401 8.628-8.88-1.388-18.127-.633-27.087-.364-.619-2.847-.922-5.617-1.173-8.514"/><path fill="#2F2F41" d="M78.371 409.127c9.466-.065 18.99-.35 28.448-.005l.806.45c3.867 2.12 8.183 3.45 12.104 5.504 11.617 6.088 18.826 17.42 22.526 29.728 2.334 7.764 2.967 15.93 3.899 23.95a542 542 0 0 1 2.88 29.435c2.29-4.68 5.005-11.002 10.336-12.812 2.929-.994 6.27-.258 8.917 1.213 1.764.982 3.293 2.424 4.904 3.632l1.46 1.725 2.316 6.348c-3.513 11.133-13.623 35.853-19.986 45.105-2.003 2.913-4.498 5.655-7.686 7.271-3.288 1.666-6.79 1.992-10.391 2.407 1.369 18.695.222 37.728.16 56.468l-.208 93.62c-.071 18.837-.672 37.78.002 56.604-1.881.067-6.535-.263-7.857.827l-1.023 20.089c-7.67-2.319-20.94-1.462-29.043-.634q.072-10.015-.12-20.029c-1.667-.145-2.755.012-4.115-.999-1.439-6.964-1.728-14.38-2.417-21.457a2489 2489 0 0 0-3.967-39.777c-1.453 11.356-4.342 54.613-7.392 61.645-1.144.308-2.272.634-3.445.81-.382 6.813-.591 13.77-1.813 20.494-9.315-2.524-20.198.656-27.975-1.033 1.102-6.4.759-12.97.695-19.436-2.065-.195-4.126-.132-6.197-.106 1.047-10.341.945-21.108 1.402-31.517l2.89-63.673c1.147-24.816 2.703-49.578 3.497-74.416.349-10.924 1.852-23.523-.408-34.255-1.157-2.351-1.46-5.155-1.614-7.75-.751-12.635.139-25.558.117-38.23-.026-14.405-.836-28.894-.24-43.286.973-23.478 11.472-42.208 28.538-57.91"/><path fill="#F47F94" d="M78.371 409.127c9.466-.065 18.99-.35 28.448-.005l.806.45c3.867 2.12 8.183 3.45 12.104 5.504 11.617 6.088 18.826 17.42 22.526 29.728 2.334 7.764 2.967 15.93 3.899 23.95a542 542 0 0 1 2.88 29.435c2.29-4.68 5.005-11.002 10.336-12.812 2.929-.994 6.27-.258 8.917 1.213 1.764.982 3.293 2.424 4.904 3.632l1.46 1.725 2.316 6.348c-3.513 11.133-13.623 35.853-19.986 45.105-2.003 2.913-4.498 5.655-7.686 7.271-3.288 1.666-6.79 1.992-10.391 2.407q-.246-.02-.49-.044c-4.238-.443-8.786-2.676-11.512-5.992-7.21-8.767-9.322-33.916-11.24-45.79-.517-3.198-.791-7.133-1.88-10.171-.42-1.17-.971-1.536-2.038-2.071l-.899.3c-1.846 4.795 2.45 17.275 3.495 22.756 1.963 10.3 2.262 21.756 6.671 31.426 2.225 4.881 5.927 9.1 11.057 11.007q1.963.711 3.958 1.325c-21.25.694-42.661.162-63.934.133-4.324-.006-15.608-.86-19.16-.227-.661.117-.847.272-1.362.573-1.157-2.351-1.46-5.155-1.614-7.75-.751-12.635.139-25.558.117-38.23-.026-14.405-.836-28.894-.24-43.286.973-23.478 11.472-42.208 28.538-57.91"/><path fill="#A06169" d="M100.814 760.023c3.996-.13 28.065-.703 30.187.574l-1.023 20.089c-7.67-2.319-20.94-1.462-29.043-.634q.072-10.015-.12-20.029"/><path fill="#A06169" d="M50.386 760.27a2524 2524 0 0 1 29.093-.025c-.382 6.813-.591 13.77-1.813 20.494-9.315-2.524-20.198.656-27.975-1.033 1.102-6.4.759-12.97.695-19.436"/><path fill="#2F2F41" d="M537.595 408.012c.727.485 1.028.86 1.554 1.54l-.224.917c-5.349 4.774-13.157 8.088-19.519 11.476-13.32 7.093-26.803 13.906-40.214 20.827-.56-.265-.872-.657-1.301-1.093l.118-1.129c5.21-5.871 49.912-27.994 59.586-32.538"/><path fill="#2F2F41" d="M562.467 454.5c1.158.016 1.269.034 2.222.685l-.062.82c-4.88 5.473-50.273 28.2-59.931 33.181-1.186-.423-1.218-.424-1.894-1.482.144-.382.2-.809.433-1.143 2.644-3.81 52.116-28.462 59.232-32.061"/><path fill="#2F2F41" d="M582.79 502.42c1.171.539 1.374.378 1.976 1.587-1.888 4.216-47.585 27.293-55.14 31.211-.462 0-.9-.162-1.345-.279l-.699-1.195c.477-1.317.97-1.82 2.111-2.644 5.53-3.995 12.366-6.723 18.395-9.958 11.582-6.215 23.05-12.638 34.702-18.722"/><path fill="#2F2F41" d="M299.677 299.727c1.783-.697 3.694-1.494 5.604-1.74 3.347-.432 5.594 1.66 8.05 3.562 1.595.088 3.214.178 4.794.415 3.991.599 5.703 3.562 7.85 6.603l5.55 2.177.07.16c2.563 5.558 3.75 11.973 5.06 17.944-1.082 2.042-2.415 3.942-3.421 6.03-4.829 10.028-7.25 20.514-16.507 27.71-2.695 3.322-5.36 5.819-8.944 8.163 1.404 5.318 2.73 10.617 3.6 16.055.76 4.75 1.009 10.1 2.426 14.674-7.88 2.706-14.13 3.875-22.426 2.032-2.365-.525-4.917-1.52-7.324-1.654 1.132-.115 1.364.035 2.267-.726 2.205-8.794 2.425-18.88 3.125-27.953.272-3.525 1.072-7.112-1.347-9.932-6.772-4.251-12.583-11.17-16.828-17.864-3.462-5.463-7.118-16.143-5.403-22.612.977-3.69 3.692-5.34 6.777-7.2.223-2.793.254-5.497 1.918-7.882 2.484-3.562 7.315-3.984 11.238-4.709 1.749-1.98 3.42-3.591 5.542-5.189 2.783.448 5.586 1.27 8.329 1.936"/><path fill="#A06169" d="M287.76 342.814c2.002-.806 7.02-4.308 8.806-4.267 1.054.024 2.392.497 3.444.714 1.92.395 2.767.01 4.387-1.029 1.815-1.164 2.564-1.71 4.75-1.406 1.367.896 2.152 2.895 2.922 4.327 1.329-.107 3.189-.413 4.227.601 3.38 3.298.24 15.661.405 20.306q.012.265.026.529c-2.695 3.32-5.36 5.818-8.944 8.162 1.404 5.318 2.73 10.617 3.6 16.055.76 4.75 1.009 10.1 2.426 14.674-7.88 2.706-14.13 3.875-22.426 2.032-2.365-.525-4.917-1.52-7.324-1.654 1.132-.115 1.364.035 2.267-.726 2.205-8.794 2.425-18.88 3.125-27.953.272-3.525 1.072-7.112-1.347-9.932l-1.347-6.525c.62-1.964 1.434-3.88 2.183-5.8-.561-2.707-.913-5.357-1.18-8.108"/><path fill="#FEFEFE" d="M302.485 359.137c1.421-.112 2.986-.18 4.35.285 1.776.608 2.655 1.544 3.407 3.231.035.977.086 1.759-.387 2.66-1.088 2.07-3.257 2.57-5.312 3.22l-.595-.069c-4.54-.56-6.315-1.676-9.133-5.285z"/><path fill="#2F2F41" d="M66.48 409.195c.619-12.731.141-25.524.158-38.263.01-8.126 1.632-15.965 7.735-21.856 5.313-5.128 12.658-7.215 19.913-6.844 6.69.342 13.057 3.195 17.462 8.302 2.438 2.826 4.441 6.614 5.247 10.288 1.91 8.715.857 18.377.766 27.24-.071 6.95.239 14.01-.418 20.93-3.498.34-7.016.19-10.524.13-9.459-.345-18.982-.06-28.448.005-3.955-.136-7.933.01-11.89.068"/><path fill="#24C19E" d="M423.099 485.872c6.376-5.02 13.355-9.298 20.043-13.894 5.012 8.09 8.907 17.11 13.075 25.66a1190 1190 0 0 0 21.367 42.381l-26.975.091c-4.296-6.253-7.486-13.763-10.847-20.549z"/><path fill="#24C19E" d="M182.31 425.85c7.58 3.291 15.065 6.846 22.704 9.987-8.496 17.144-19.31 41.138-30.363 56.11l-1.46-1.725c2.14-4.72 4.636-9.491 6.345-14.377-5.851-3.376-11.906-6.41-17.902-9.52 6.047-13.874 13.56-27.128 20.676-40.475"/><path fill="#2F2F41" d="M100.935 780.052c8.103-.828 21.374-1.685 29.043.634 6.434 8.463 13.533 16.498 20.414 24.603-10.871.242-21.797-.034-32.673-.053-5.498-.01-11.262-.338-16.713.38-.188-8.512-.063-17.05-.071-25.564"/><path fill="#2F2F41" d="M49.691 779.706c7.777 1.69 18.66-1.491 27.975 1.033 5.852 8.74 13.05 16.227 19.472 24.502-15.85.407-31.796.025-47.656.05.01-6.641-1.474-19.682.209-25.585"/><path fill="#2F2F41" d="M314.149 781.896c8.96-.27 18.206-1.024 27.087.364 6.523 8.174 15.695 14.092 21.699 22.05l-.492.574c-5.098 1.015-11.213.421-16.447.416l-31.928-.064c.16-7.8.328-15.54.08-23.34"/><path fill="#2F2F41" d="M239.5 782.112c7.074-.633 18.92-1.404 25.882.16 6.2 8.32 14.752 14.438 20.842 22.946a3953 3953 0 0 1-46.835-.025z"/><path fill="#A06169" d="M432.964 447.553c4.494-3.26 20.107-13.443 25.127-13.688 2.8 1.343 5.722 7.287 6.714 10.246 1.403 4.188 1.155 8.322-1.002 12.202-3.755 6.749-11.157 10.536-17.812 13.821-2.636-8.068-7.94-16.171-15.157-20.796z"/>
</svg>